<?xml version="1.0" standalone="no"?>
<!DOCTYPE svg PUBLIC "-//W3C//DTD SVG 20010904//EN"
 "http://www.w3.org/TR/2001/REC-SVG-20010904/DTD/svg10.dtd">
<svg version="1.0" xmlns="http://www.w3.org/2000/svg"
 width="256.000000pt" height="256.000000pt" viewBox="0 0 256.000000 256.000000"
 preserveAspectRatio="xMidYMid meet">
<metadata>
Created by potrace 1.11, written by Peter Selinger 2001-2013
</metadata>
<g transform="translate(0.000000,256.000000) scale(0.100000,-0.100000)"
fill="#000000" stroke="none">
<path d="M0 1280 l0 -1280 1280 0 1280 0 0 1280 0 1280 -1280 0 -1280 0 0
-1280z m1715 981 c113 -30 195 -73 258 -136 101 -98 155 -222 164 -370 19
-317 -170 -575 -487 -665 -84 -24 -260 -36 -330 -23 -38 7 -48 15 -67 48 -13
22 -22 49 -21 60 3 18 11 20 98 20 106 1 154 13 220 57 103 68 150 174 157
353 9 197 -39 338 -147 438 -79 73 -145 99 -272 105 -120 5 -142 0 -157 -36
-9 -21 -11 -232 -9 -813 3 -763 4 -785 23 -818 33 -56 61 -69 185 -89 114 -17
115 -17 118 -46 2 -16 1 -38 -2 -50 l-5 -22 -508 1 -508 0 0 49 0 50 99 17
c120 21 146 38 164 105 17 64 29 1270 14 1450 -15 183 -30 202 -194 227 -90
14 -95 19 -84 80 l6 32 602 -1 c585 -1 605 -2 683 -23z"/>
</g>
</svg>
