<svg xmlns="http://www.w3.org/2000/svg" viewBox="0 0 191 43">
    <style>
        .st0{fill:#431b11}
    </style>
    <path class="st0" d="M37.8 4.6c.9.1 1.6.2 2.3.4.9.3 1.1.6 1.2 2 .1 1.3.1 4.9.1 8.3 0 4.9 0 8.5-.1 10.4 0 1.5-.4 2-1.3 2.2-.7.2-1.8.3-3.2.5-.1.2-.1 1.2 0 1.4 2.2 0 5-.1 7.5-.1 4.6 0 8.4.2 12.1.2 2 0 2.2-.3 2.4-.7.7-1.4 1.7-5.1 1.9-6.2-.2-.3-1.2-.6-1.5-.6-.7 1.5-1.5 3-2.3 3.9-.9 1.1-1.5 1.3-3.4 1.3-2.2 0-4.9-.1-5.7-.3-.5-.1-1-.7-1-1.5v-8c0-.1.1-.3.3-.3 1.4 0 4.8 0 5.8.1.9.1 1.3.6 1.5 1.2.2.6.1.6.4 1.8.2.2 1.4.1 1.6 0 0-1.1-.1-2.9-.1-4.2 0-1.4.2-3.2.3-4.2-.2-.2-1.4-.3-1.6-.1-.1.6-.2 1.1-.4 1.6-.3 1-.6 1.4-1.5 1.4-1.4.1-4.6.1-5.9.1-.1 0-.3-.2-.3-.3V6.2c0-.2.2-.7.5-.8.6-.1 5.2-.1 6.2 0 .9.1 1.5.4 1.9 1.3.3.7.5 1.5.7 3 .2.1 1.3.1 1.6-.1.1-2.2.4-5 .7-6.3 0-.1-.1-.2-.2-.2-1.3.2-3.7.2-5.3.2h-8.7c-2.2 0-4.8-.1-6.3-.1-.2.1-.3 1.2-.2 1.4"/>
    <path class="st0" d="M116.6 4.6c.9.1 1.6.2 2.3.4.9.3 1.1.6 1.2 2 .1 1.3.1 4.9.1 8.3 0 4.9 0 8.5-.1 10.4 0 1.5-.4 2-1.3 2.2-.7.2-1.8.3-3.2.5-.1.2-.1 1.2 0 1.4 2.2 0 5-.1 7.5-.1 4.6 0 8.4.2 12.1.2 2 0 2.2-.3 2.4-.7.7-1.4 1.7-5.1 1.9-6.2-.2-.3-1.2-.6-1.5-.6-.7 1.5-1.5 3-2.3 3.9-.9 1.1-1.5 1.3-3.4 1.3-2.2 0-4.9-.1-5.7-.3-.5-.1-1-.7-1-1.5v-8c0-.1.1-.3.3-.3 1.4 0 4.8 0 5.8.1.9.1 1.3.6 1.5 1.2.2.6.1.6.4 1.8.2.2 1.4.1 1.6 0 0-1.1-.1-2.9-.1-4.2 0-1.4.2-3.2.3-4.2-.2-.2-1.4-.3-1.6-.1-.1.6-.2 1.1-.4 1.6-.3 1-.6 1.4-1.5 1.4-1.4.1-4.6.1-5.9.1-.1 0-.3-.2-.3-.3V6.2c0-.2.2-.7.5-.8.6-.1 5.2-.1 6.2 0 .9.1 1.5.4 1.9 1.3.3.7.5 1.5.7 3 .2.1 1.3.1 1.6-.1.1-2.2.4-5 .7-6.3 0-.1-.1-.2-.2-.2-1.3.2-3.7.2-5.3.2H123c-2.2 0-4.8-.1-6.3-.1-.2.1-.3 1.2-.1 1.4"/>
    <path class="st0" d="M75 19.2c.5.1 1.1.2 2 .2 1.7 0 3.6-.4 5.2-1.3 2.1-1.2 4.1-3.6 4.1-7.2 0-2.9-1.3-4.9-2.9-6-1.8-1.3-4.4-1.5-5.7-1.5-3 0-5 0-8 .1-2.2 0-4.6-.1-5.7-.1-.1.2-.2 1.1-.1 1.4.9.1 1.6.2 2.2.3 1.1.3 1.3.9 1.4 2.4.1 1.3.1 3.9.1 8.5 0 5.1 0 8.2-.1 9.8 0 1.4-.2 2.1-1.3 2.4-.7.2-1.4.3-2.3.4-.2.2-.2 1.1 0 1.4 1.8 0 4.3-.1 6.5-.1s5.1.1 6.7.1c.2-.2.3-1.2.1-1.4-1.1-.1-2-.2-2.7-.4-1.1-.3-1.3-1-1.4-2.2-.1-2.3-.1-7-.1-10.2 0-6.2 0-8.6.1-9.8 0-.3.2-.6.3-.6.2-.4 1-.4 1.2-.4 3.9 0 5.9 2.7 6 6.7 0 2.7-.7 4.4-2.3 5.3-.7.4-1.4.6-2.4.6-.7 0-1.1-.1-1.4-.1-.1 0-.2.3-.2.4.1.3.4 1.1.7 1.3"/>
    <path class="st0" d="M101.3 19.2c.5.1 1.1.2 2 .2 1.7 0 3.6-.4 5.2-1.3 2.1-1.2 4.1-3.6 4.1-7.2 0-2.9-1.3-4.9-2.9-6-1.8-1.3-4.4-1.5-5.7-1.5-3 0-5 0-8 .1-2.2 0-4.6-.1-5.7-.1-.1.2-.2 1.1-.1 1.4.9.1 1.6.2 2.2.3 1.1.3 1.3.9 1.4 2.4.1 1.3.1 3.9.1 8.5 0 5.1 0 8.2-.1 9.8 0 1.4-.2 2.1-1.3 2.4-.7.2-1.4.3-2.3.4-.2.2-.2 1.1 0 1.4 1.8 0 4.3-.1 6.5-.1s5.1.1 6.7.1c.2-.2.3-1.2.1-1.4-1.1-.1-2-.2-2.7-.4-1.1-.3-1.3-1-1.4-2.2-.1-2.3-.1-7-.1-10.2 0-6.2 0-8.6.1-9.8 0-.3.2-.6.3-.6.2-.4 1-.4 1.2-.4 3.9 0 5.9 2.7 6 6.7 0 2.7-.7 4.4-2.3 5.3-.7.4-1.4.6-2.4.6-.7 0-1.1-.1-1.4-.1-.1 0-.2.3-.2.4.1.3.4 1.1.7 1.3"/>
    <path class="st0" d="M142.6 4.6c.8.1 1.8.2 2.3.4 1.1.3 1.3.9 1.3 2 .1 1.5.1 3.9.1 8.8 0 4.8 0 9.4-.2 10.4-.1 1-.3 1.5-1.2 1.8-.8.2-1.3.3-2.6.4-.2.2-.2 1.2 0 1.4 1.3 0 3.6-.1 6.5-.1 3 0 8.6.2 11.9.2 1.7 0 2.2-.2 2.3-.6 1-1.6 2.3-6.4 2.6-7.7-.1-.3-1.3-.7-1.5-.6-.7 1.7-2 3.9-2.8 5.1-.9 1.1-1.6 1.5-2.5 1.5-2 0-5 0-6.1-.3-.3-.1-.8-.5-.8-1.3-.1-1.4-.2-6.2-.1-10.8 0-4.3 0-7.4.1-8.4 0-1 .2-1.5 1.2-1.8.5-.1 1-.2 2.1-.4.2-.2.2-1.2 0-1.4-1.4 0-3 .1-6.1.1-3.3 0-4.6-.1-6.2-.1-.4.1-.5 1.1-.3 1.4"/>
    <path class="st0" d="M168.1 4.6c.8.1 1.8.2 2.3.4 1.1.3 1.3.9 1.3 2 .1 1.5.1 3.9.1 8.8 0 4.8 0 9.4-.2 10.4-.1 1-.3 1.5-1.2 1.8-.8.2-1.3.3-2.6.4-.2.2-.2 1.2 0 1.4 1.3 0 3.6-.1 6.5-.1 3 0 8.6.2 11.9.2 1.7 0 2.2-.2 2.3-.6 1-1.6 2.3-6.4 2.6-7.7-.1-.3-1.3-.7-1.5-.6-.7 1.7-2 3.9-2.8 5.1-.9 1.1-1.6 1.5-2.5 1.5-2 0-5 0-6.1-.3-.3-.1-.8-.5-.8-1.3-.1-1.4-.2-6.2-.1-10.8 0-4.3 0-7.4.1-8.4 0-1 .2-1.5 1.2-1.8.5-.1 1-.2 2.1-.4.2-.2.2-1.2 0-1.4-1.4 0-3 .1-6.1.1-3.3 0-4.6-.1-6.2-.1-.3.1-.4 1.1-.3 1.4"/>
    <path class="st0" d="M16.4 23.3c.8.1 1.6.3 2.8.3 2.5 0 5.2-.6 7.5-2 3.1-1.8 5.9-5.2 5.9-10.6 0-4.3-2-7.1-4.2-8.8C25.7.2 22 0 20.1 0c-4.4 0-7.3.1-11.7.1C5.3.2 1.8 0 .3 0 .1.3-.1 1.6.1 2c1.3.1 2.3.3 3.2.5 1.6.4 2 1.3 2.1 3.5.1 1.9.1 5.6.1 12.4 0 7.4-.1 11.9-.2 14.2-.1 2-.3 3.1-1.8 3.5-.9.3-2 .4-3.3.6-.3.3-.3 1.6 0 2 2.7 0 6.2-.2 9.4-.2s7.4.2 9.7.2c.3-.3.4-1.7.1-2.1-1.6-.1-2.9-.3-4-.6-1.6-.4-2-1.5-2.1-3.2-.1-3.4-.1-10.2-.1-14.8 0-9 .1-12.6.1-14.3.1-.4.3-.8.4-.9.5-.3 1.6-.3 2-.3 5.8 0 8.7 4 8.7 9.8 0 4-1.1 6.4-3.3 7.8-1 .6-2.1.9-3.5.9-.9 0-1.6-.1-2-.1-.1.1-.3.4-.3.6.2.4.7 1.5 1.1 1.8"/>
    <path class="st0" d="M27.1 36.4h70v2.1h-70z"/>
    <path class="st0" d="M102.4 37.3h1.7v-1h-4.7v1h1.8v4.8h1.2z"/>
    <path class="st0" d="M106.1 39.2c0-1.6.9-2 1.6-2 .7 0 1.6.4 1.6 2s-.9 2-1.6 2c-.7.1-1.6-.4-1.6-2m-1.2 0c0 2.7 2 3.1 2.8 3.1.8 0 2.8-.3 2.8-3.1 0-2.7-2-3.1-2.8-3.1-.8.1-2.8.4-2.8 3.1z"/>
    <path class="st0" d="M112.8 37.3h1.4c.6 0 .9.2.9.6 0 .5-.4.6-.9.6h-1.4v-1.2zm0 2.3h1.5c.4 0 .9.2.9.7 0 .6-.3.9-.9.9h-1.5v-1.6zm-1.2 2.5h2.5c2.1 0 2.3-1.2 2.3-1.7 0-.6-.2-1.1-.9-1.4.2-.1.7-.4.7-1.2 0-.6-.4-1.5-1.8-1.5h-2.9v5.8z"/>
    <path class="st0" d="M120 37.6l.8 2.3h-1.6l.8-2.3zm-.7-1.3l-2.1 5.8h1.3l.4-1.2h2.1l.4 1.2h1.3l-2-5.8h-1.4z"/>
    <path class="st0" d="M128.5 38.2c-.1-.9-.8-2.1-2.5-2.1-1.5 0-2.7 1-2.7 3.1 0 2 1.1 3 2.6 3s2.3-.9 2.5-2.1h-1.2c-.1.7-.6 1.1-1.3 1.1-1 0-1.5-1-1.5-2 0-1.6.9-2.1 1.5-2.1 1 0 1.2.7 1.3 1h1.3z"/>
    <path class="st0" d="M134.6 38.2c-.1-.9-.8-2.1-2.5-2.1-1.5 0-2.7 1-2.7 3.1 0 2 1.1 3 2.6 3s2.3-.9 2.5-2.1h-1.2c-.1.7-.6 1.1-1.3 1.1-1 0-1.5-1-1.5-2 0-1.6.9-2.1 1.5-2.1 1 0 1.2.7 1.3 1h1.3z"/>
    <path class="st0" d="M136.8 39.2c0-1.6.9-2 1.6-2 .7 0 1.6.4 1.6 2s-.9 2-1.6 2c-.7.1-1.6-.4-1.6-2m-1.2 0c0 2.7 2 3.1 2.8 3.1.8 0 2.8-.3 2.8-3.1 0-2.7-2-3.1-2.8-3.1-.8.1-2.8.4-2.8 3.1z"/>
    <path class="st0" d="M150.7 38.2c-.1-.9-.8-2.1-2.5-2.1-1.5 0-2.7 1-2.7 3.1 0 2 1.1 3 2.6 3s2.3-.9 2.5-2.1h-1.2c-.1.7-.6 1.1-1.3 1.1-1 0-1.5-1-1.5-2 0-1.6.9-2.1 1.5-2.1 1 0 1.2.7 1.3 1h1.3z"/>
    <path class="st0" d="M152.9 39.2c0-1.6.9-2 1.6-2 .7 0 1.6.4 1.6 2s-.9 2-1.6 2c-.7.1-1.6-.4-1.6-2m-1.3 0c0 2.7 2 3.1 2.8 3.1.8 0 2.8-.3 2.8-3.1 0-2.7-2-3.1-2.8-3.1-.7.1-2.8.4-2.8 3.1z"/>
    <path class="st0" d="M158.4 36.3v5.8h1.1v-4.8l1.1 4.8h1.2l1.1-4.8v4.8h1.1v-5.8h-1.7l-1.1 4.6-1-4.6z"/>
    <path class="st0" d="M166.6 37.3h1c.8 0 1.1.2 1.1.8 0 .4-.1.9-.9.9h-1.1v-1.7zm0 2.7h1.4c1.6 0 1.8-1.3 1.8-1.9 0-1.1-.7-1.9-1.8-1.9h-2.7V42h1.2v-2z"/>
    <path class="st0" d="M173 37.6l.8 2.3h-1.6l.8-2.3zm-.7-1.3l-2.1 5.8h1.3l.4-1.2h2.1l.4 1.2h1.3l-2-5.8h-1.4z"/>
    <path class="st0" d="M176.7 36.3v5.8h1.1V38h.1l2.3 4.1h1.2v-5.8h-1.1v4.1l-2.3-4.1z"/>
    <path class="st0" d="M182.4 36.3l2 3.6v2.2h1.2v-2.2l1.9-3.6h-1.3l-1.2 2.5-1.2-2.5z"/>
</svg>
