<svg version="1.1" id="Capa_1" xmlns="http://www.w3.org/2000/svg" x="0" y="0" viewBox="0 0 97.7 97.7" xml:space="preserve">
    <style>
        .st0{fill:#431b11}
    </style>
    <path class="st0" d="M48.9 0c-19.8 0-36 16.1-36 36 0 5.2 1.1 10.1 3.1 14.7C25 70.3 42.3 91.1 47.3 97c.4.4.9.7 1.5.7s1.1-.3 1.5-.7c5.1-5.9 22.3-26.7 31.3-46.4 2.1-4.6 3.1-9.5 3.1-14.7C84.8 16.1 68.7 0 48.9 0zm0 54.7c-10.3 0-18.7-8.4-18.7-18.7 0-10.3 8.4-18.7 18.7-18.7S67.5 25.7 67.5 36c0 10.3-8.3 18.7-18.6 18.7z"/>
    <circle cx="48.9" cy="36" r="28.3" fill="#fff"/>
    <path class="st0" d="M50.8 40.2c.8.1 1.6.3 3 .3 2.6 0 5.4-.7 7.8-2 3.2-1.8 6.2-5.5 6.2-11 0-4.5-2-7.4-4.4-9.2-2.8-2-6.7-2.3-8.7-2.3-4.6 0-7.6.1-12.2.1-3.4 0-7.1-.2-8.6-.2-.2.3-.3 1.7-.1 2.1 1.3.1 2.4.3 3.3.5 1.7.4 2 1.4 2.2 3.6.1 2 .1 5.9.1 13 0 7.7-.1 12.5-.2 14.8-.1 2.1-.3 3.2-1.9 3.6-1 .3-2.1.4-3.4.6-.3.3-.3 1.7 0 2.1 2.8 0 6.5-.2 9.8-.2 3.3 0 7.7.2 10.2.2.3-.3.4-1.8.1-2.2-1.6-.1-3-.3-4.2-.6-1.7-.5-2-1.5-2.2-3.4-.1-3.6-.1-10.7-.1-15.4 0-9.4.1-13.1.1-15 .1-.4.3-.9.5-.9.5-.3 1.7-.3 2.1-.3 6 0 9 4.2 9.1 10.2 0 4.2-1.1 6.7-3.5 8.1-1.1.6-2.2.9-3.7.9-1 0-1.7-.1-2.1-.1-.1.1-.3.4-.3.7.2.5.7 1.7 1.1 2"/>
</svg>
