<svg xmlns="http://www.w3.org/2000/svg" xmlns:xlink="http://www.w3.org/1999/xlink"><symbol id="arrow-dotted" viewBox="0 0 95 16"><path d="M87.3 1.2c-.3-.3-.8-.3-1.1 0s-.3.8 0 1.1l5.9 5.9-5.9 5.9c-.3.3-.3.8 0 1.1.1.1.3.2.5.2s.4-.1.5-.2l7-7-6.9-7zM24.8 6.8c-.8 0-1.4.6-1.4 1.4 0 .8.6 1.4 1.4 1.4.8 0 1.4-.6 1.4-1.4 0-.8-.6-1.4-1.4-1.4zM29.4 6.8c-.8 0-1.4.6-1.4 1.4 0 .8.6 1.4 1.4 1.4.8 0 1.4-.6 1.4-1.4 0-.8-.6-1.4-1.4-1.4zM38.7 6.8c-.8 0-1.4.6-1.4 1.4 0 .8.6 1.4 1.4 1.4.8 0 1.4-.6 1.4-1.4-.1-.8-.7-1.4-1.4-1.4zM20.2 6.8c-.8 0-1.4.6-1.4 1.4 0 .8.6 1.4 1.4 1.4.8 0 1.4-.6 1.4-1.4 0-.8-.6-1.4-1.4-1.4zM34 6.8c-.8 0-1.4.6-1.4 1.4 0 .8.6 1.4 1.4 1.4.8 0 1.4-.6 1.4-1.4 0-.8-.6-1.4-1.4-1.4zM6.4 6.8c-.8 0-1.4.6-1.4 1.4 0 .8.6 1.4 1.4 1.4S7.8 9 7.8 8.2c0-.8-.7-1.4-1.4-1.4zM15.6 6.8c-.8 0-1.4.6-1.4 1.4 0 .8.6 1.4 1.4 1.4.8 0 1.4-.6 1.4-1.4 0-.8-.6-1.4-1.4-1.4zM1.8 6.8C1 6.8.4 7.4.4 8.2c0 .8.6 1.4 1.4 1.4.8 0 1.4-.6 1.4-1.4-.1-.8-.7-1.4-1.4-1.4zM11 6.8c-.8 0-1.4.6-1.4 1.4 0 .8.6 1.4 1.4 1.4.8 0 1.4-.6 1.4-1.4 0-.8-.6-1.4-1.4-1.4zM43.3 6.8c-.8 0-1.4.6-1.4 1.4 0 .8.6 1.4 1.4 1.4.8 0 1.4-.6 1.4-1.4 0-.8-.7-1.4-1.4-1.4zM75.6 6.8c-.8 0-1.4.6-1.4 1.4 0 .8.6 1.4 1.4 1.4.8 0 1.4-.6 1.4-1.4 0-.8-.7-1.4-1.4-1.4zM47.9 6.8c-.8 0-1.4.6-1.4 1.4 0 .8.6 1.4 1.4 1.4s1.4-.6 1.4-1.4c0-.8-.7-1.4-1.4-1.4zM80.2 6.8c-.8 0-1.4.6-1.4 1.4 0 .8.6 1.4 1.4 1.4.8 0 1.4-.6 1.4-1.4 0-.8-.7-1.4-1.4-1.4z"/><path d="M84.8 6.8c-.8 0-1.4.6-1.4 1.4 0 .8.6 1.4 1.4 1.4.8 0 1.4-.6 1.4-1.4 0-.8-.7-1.4-1.4-1.4zM71 6.8c-.8 0-1.4.6-1.4 1.4 0 .8.6 1.4 1.4 1.4.8 0 1.4-.6 1.4-1.4-.1-.8-.7-1.4-1.4-1.4zM57.1 6.8c-.8 0-1.4.6-1.4 1.4 0 .8.6 1.4 1.4 1.4.8 0 1.4-.6 1.4-1.4 0-.8-.6-1.4-1.4-1.4zM66.3 6.8c-.8 0-1.4.6-1.4 1.4 0 .8.6 1.4 1.4 1.4.8 0 1.4-.6 1.4-1.4 0-.8-.6-1.4-1.4-1.4zM52.5 6.8c-.8 0-1.4.6-1.4 1.4 0 .8.6 1.4 1.4 1.4.8 0 1.4-.6 1.4-1.4 0-.8-.6-1.4-1.4-1.4zM61.7 6.8c-.8 0-1.4.6-1.4 1.4 0 .8.6 1.4 1.4 1.4.8 0 1.4-.6 1.4-1.4 0-.8-.6-1.4-1.4-1.4z"/></symbol><symbol id="arrow-triangle" viewBox="0 0 24 24"><path d="M4.5 24c-.3 0-.7-.1-1-.2-.6-.4-1-1-1-1.7V2c0-.7.4-1.4 1-1.7.6-.4 1.4-.3 2 .1l16 10c.6.4.9 1 .9 1.7s-.4 1.3-.9 1.7l-16 10c-.3.1-.6.2-1 .2z"/></symbol><symbol id="arrow" viewBox="0 0 24 24"><path d="M20.9 9.8l1.5 1.5H.3c-.5.4-.2.9.2.9h21.9l-1.5 1.5c-.1.1-.1.2-.1.3s0 .2.1.3c.2.2.5.2.7 0l2.3-2.3c.2-.2.2-.5 0-.7L21.6 9c-.2-.2-.5-.2-.7 0-.2.3-.2.6 0 .8z"/></symbol><symbol id="bag" viewBox="0 0 24 24"><path d="M20.3 10.6V4.2c0-.8-.6-1.4-1.4-1.4h-4.5V1.4C14.4.6 13.8 0 13 0H7.3c-.8 0-1.4.6-1.4 1.4v1.4H1.4C.6 2.8 0 3.4 0 4.2v12.5C0 18 1.1 19 2.3 19H17v4.5c0 .2.1.3.3.4.2.1.4.1.5-.1l2.1-1.6 2.1 1.6c0 .2.2.2.3.2.2-.1.3-.2.3-.4V18c.9-.8 1.4-1.9 1.4-3.1 0-2.3-1.6-4-3.7-4.3zM6.8 1.4c0-.3.2-.5.5-.5h5.6c.3 0 .5.2.5.5v1.4H6.8V1.4zM1.4 3.8h17.4c.3 0 .5.2.5.5v3.2L12 10.6c-.4-.6-1.1-1-1.9-1s-1.5.4-1.9 1L.9 7.4V4.2c0-.2.2-.4.5-.4zm7.4 7.6c.2-.5.7-.8 1.3-.8s1.1.3 1.3.8c.1.2.1.4.1.6 0 .8-.6 1.4-1.4 1.4s-1.4-.6-1.4-1.4c0-.2.1-.4.1-.6zm-6.5 6.7c-.8 0-1.4-.6-1.4-1.4V8.5l6.9 3c0 .2-.1.3-.1.5 0 1.3 1.1 2.3 2.3 2.3s2.3-1.1 2.3-2.3c0-.2 0-.3-.1-.5l6.9-3v2.2c-2.1.2-3.8 2-3.8 4.2 0 1.2.5 2.3 1.4 3.1v.1H2.3zm17.8 3.2c-.2-.1-.4-.1-.6 0l-1.6 1.3v-4c.6.3 1.2.4 1.9.4s1.3-.2 1.9-.4v4l-1.6-1.3zm-.3-3.2c-1.8 0-3.3-1.5-3.3-3.3 0-1.8 1.5-3.3 3.3-3.3s3.3 1.5 3.3 3.3c0 1.8-1.5 3.3-3.3 3.3z"/><path d="M19.8 12.5c-1.3 0-2.3 1.1-2.3 2.3s1.1 2.3 2.3 2.3 2.3-1.1 2.3-2.3-1-2.3-2.3-2.3zm0 3.7c-.8 0-1.4-.6-1.4-1.4s.6-1.4 1.4-1.4 1.4.6 1.4 1.4-.6 1.4-1.4 1.4z"/></symbol><symbol id="hands" viewBox="0 0 24 24"><path d="M23.5 6.9L18.6 2c-.3-.3-.7-.5-1.2-.5s-.8.2-1.1.5l-1.1 1.1c-.2.2-.3.4-.4.6l-5.4-1C7 2.3 4.6 3.9 4.2 6.3l-.3 1.2c-.3 1.4.6 2.7 2 3 1.4.3 2.7-.6 3-2l.1-.8 2.4.3 6.3 6.3 1.1 1.1c.2.2.2.6 0 .8-.2.2-.6.2-.8 0l-3.1-3.1c-.2-.2-.6-.2-.8 0-.2.2-.2.6 0 .8l3.1 3.1c.1.1.2.3.2.4s-.1.3-.2.4c-.2.2-.6.2-.8 0l-3.1-3.1c-.2-.2-.6-.2-.8 0-.2.2-.2.6 0 .8l3.1 3.1c.2.2.2.6 0 .8-.1.1-.3.2-.4.2-.2 0-.3-.1-.4-.2l-3.1-3.1c-.2-.2-.6-.2-.8 0-.2.2-.2.6 0 .8l3.1 3.1c.2.2.2.6 0 .8-.2.2-.6.2-.8 0L2.4 10.2.9 8.8c-.2-.2-.6-.2-.8 0-.2.2-.2.6 0 .8L1.6 11l1.6 1.6-.9.9c-.3.3-.4.7-.4 1 0 .4.2.8.4 1l.3.3c.2.2.6.4.9.4 0 .3.2.7.4.9l.3.3c.3.3.6.4.9.4 0 .3.2.7.4.9l.3.3c.2.2.6.4.9.4 0 .3.2.7.4.9l.3.3c.3.3.7.4 1 .4.4 0 .8-.1 1-.4l.9-.9 2.1 2.1c.3.3.7.5 1.2.5s.9-.2 1.2-.5c.3-.3.5-.7.5-1.1.4 0 .8-.2 1.1-.5.3-.3.5-.7.5-1.1.4 0 .8-.2 1.1-.5.3-.3.5-.7.5-1.1.4 0 .8-.2 1.1-.5.7-.7.7-1.7 0-2.4l-.8-.8 2.8-2.8 1.9-1.9c.7-.6.7-1.6 0-2.2zM3.1 14.8c-.2-.2-.2-.4 0-.6l.8-.8.8.8-.8.8c-.2.2-.4.2-.6 0l-.2-.2zm1.6 1.6c-.2-.2-.2-.4 0-.6l.8-.8.8.8-.8.8c-.2.2-.4.2-.6 0l-.2-.2zM6.3 18c-.1-.1-.1-.2-.1-.3 0-.1 0-.2.1-.3l.8-.8.8.8-.8.8c-.2.2-.4.2-.6 0l-.2-.2zm2.4 1.9c-.2.2-.4.2-.6 0l-.3-.3c-.2-.2-.2-.4 0-.6l.8-.8.8.8c.1.1-.7.9-.7.9zm9.4-6.8l-6-6c-.1-.1-.2-.1-.3-.2l-3.2-.3c-.3 0-.5.2-.6.5l-.2 1.2c-.2.8-.9 1.3-1.7 1.1-.4-.1-.7-.3-.9-.6-.2-.3-.3-.7-.2-1.1l.2-1.2c.4-1.8 2.2-3 4-2.7l5.3.9.7.7 5.3 5.3-2.4 2.4zm4.7-4.7l-1.5 1.5L16 4.6c-.1-.1-.2-.2-.2-.4s.1-.3.2-.4l1.1-1.1c.1-.1.2-.2.4-.2s.3.1.4.2l4.9 4.9c.1.1.2.2.2.4s-.1.3-.2.4z"/><circle cx="21.4" cy="8.2" r=".5"/></symbol><symbol id="leafs" viewBox="0 0 100 100"><path d="M90.4 18.2c.9-.1 1.7-.3 2.6-.2.4 0 .8.1 1.2.2.5.1 1 .2 1.5.2.1 0 .3 0 .4.1.3 0 .6.1.8.2.4.2.9.4 1.3.5.5.2 1 .4 1.5.5.1 0 .2.1.2.1 0-.1 0-.2-.1-.3l-.3-.3-1.2-1.2c-.7-.7-1.5-1.3-2.4-1.7-.5-.3-1.1-.5-1.6-.7-.4-.1-.7-.1-1.1-.2-.5-.1-1-.1-1.5-.2-.8 0-1.6-.1-2.5.2-.6.2-1.2.2-1.8.3-.8.1-1.5.3-2.3.4-.8.1-1.5.3-2.3.3h-.7c-.2 0-.4-.1-.4-.4v-1-.2c0-.5.1-1 .3-1.5.3-.6.6-1.2 1.1-1.7.2-.3.5-.5.8-.8l.9-.9c.3-.3.5-.5.8-.7.5-.4.9-.9 1.3-1.4.5-.5.9-1.1 1.3-1.7.3-.5.6-1 .9-1.4.4-.2.8-1.5.9-1.7 0-.2-.1-.8-.1-.9-.1.2-.3.3-.4.5-.2.4-.6.7-.9 1-.5.6-1.2.9-1.9 1.4-.6.4-1.3.8-1.8 1.3-.6.5-1.1 1-1.6 1.6-.3.2-.7.6-1 1.1l-.6.9c-.2.3-.3.5-.5.8 0-.1-.1-.2 0-.2 0-.3.1-.5.2-.7l.6-1.2c.2-.2.3-.5.4-.7.3-.6.7-1.2 1.1-1.7.2-.2.4-.4.5-.6.2-.3.5-.6.7-.9.1-.2.2-.3.3-.5.2-.3.5-2.5.4-2.5-.1 0-.1.1-.2.2-.2.3-.4.5-.6.7-.5.5-1.1.8-1.7 1.2-.4.3-.8.7-1.3 1l-.3.3c-.7.7-1.3 1.4-1.9 2.2-.6.8-.9 1.6-1 2.6-.1.9-.2 1.7-.2 2.6 0 .3.1.7.1 1v.2h-.1c-.2-.2-.5-.3-.7-.5-.8-.6-1.5-1.2-2.2-1.8-.4-.4-.8-.7-1.2-1.1-.5-.4-1-.9-1.5-1.2l-1.2-.9c-.4-.3-.8-.5-1.1-.8l-1.8-1.2c-.5-.3-1-.6-1.4-.9-.7-.5-1.5-.8-2.2-1.2-.4-.2-.9-.4-1.3-.6-.6-.3-1.3-.5-1.9-.8-.4-.2-.9-.3-1.3-.4-.7-.2-1.4-.3-2.1-.4-.5-.1-.9-.1-1.4-.2-.4 0-.8-.1-1.2-.1-.9-.1-1.8-.2-2.7-.1h-1.3c-.8 0-1.6.1-2.4.2-.2 0-.4.1-.6.1h-.3s-.9.2-1.3.3l-1.2.3c-.1 0-.2.1-.3.1-.1 0-.2 0-.2.1-.1 0-.1 0-.2.1-.6.3-1.2.5-1.8.8-.3.1-.7.3-1 .4-.3.2-.7.3-1 .5l-.6.3c-.7.3-1.3.6-1.8.9-.3.2-.7.4-1 .6l-2.1 1.5c-.7.5-1.3.9-2 1.4-.4.3-.7.6-1 .9-.5.4-1 .9-1.5 1.3-.3.2-.5.5-.8.8-.2.2-.5.4-.7.7L28.7 14l-.9.9c-.5.5-1 1-1.4 1.5l-1.7 1.7c-.8.8-1.6 1.5-2.4 2.3l-2.4 2.4c-.4.4-.7.7-1.1 1l-1 1-.8.8h-.1v.1l-.7.7c-.7.7-1.5 1.4-2.2 2-.7.6-1.5 1.3-2.2 1.8-.9.7-1.8 1.3-2.8 1.8-.7.4-1.5.8-2.2 1.1-.4.2-.9.4-1.3.6-.8.4-2.7.9-2.8 1 0 0-1.9.4-2.2.7-.5.2-.5.3-.5.4.1.2 2.2.9 2.4 1 .4.2.8.3 1.2.5.3.1.6.3 1 .4.4.2.8.3 1.1.5.2.1.5.2.7.3.6.3 1.1.5 1.6.7l.6.3c.3.1.7.2 1 .3.1 0 .2.1.3.2.1 0 .2.1.3.1.1 0 .2.1.4.1.5.2 1.1.3 1.6.5.4.1.8.3 1.2.3.4.1.8.3 1.3.3.2 0 .4.1.6.1.1 0 .6.2.8.2.3.1.6.2.8.2.3.1.6.2.9.2.1 0 .5.2.8.2.2 0 .3.1.5.1.4.1.9.2 1.3.3.3.1.5.1.8.2.2 0 .4.1.5.2.4.1.9.2 1.4.3.3.1 1.8.2 2 .3.1 0 .2.1.3.1.2 0 .3 0 .5.1.7.2 1.4.3 2.2.5.6.1 1.2.3 1.7.4.2.1.5.1.8.1.4.1.9.1 1.3.1H36.5c.6 0 1.2-.1 1.8-.1h.2c.4 0 .8 0 1.3-.1.9-.1 1.8-.1 2.7-.2.3 0 .6-.1.9-.1.4 0 .8-.1 1.2-.1.5-.1 1.1-.2 1.6-.3.2 0 .5 0 .7-.2h.2c.2 0 .5-.1.7-.1.3-.1.5-.2.8-.2h.2c-.1.1-.2.3-.2.3-.5.6-1.1 1.1-1.6 1.7-.4.5-.8 1-1.2 1.6l-.6.9c-.3.6-.7 1.2-1 1.8-.3.6-.6 1.3-.8 1.9-.2.5-.3.9-.5 1.4-.2.5-.3.9-.4 1.4-.2.8-.4 1.7-.6 2.5-.1.4-.1.8-.2 1.2 0 .3-.1.5-.1.8-.1.6-.2 1.2-.2 1.8-.1.6-.1 1.3 0 1.9 0 .8 0 1.6.1 2.3 0 .9.2 1.8.3 2.7.1.7.3 1.5.4 2.2l.3 1.5c.1.6.2 1.3.2 1.9.1 1 .2 2 .3 3.1.1.6.1 1.2.1 1.8.1.8.1 1.6.2 2.4 0 .4 0 .8-.2 1.2-.2.6-.3 1.3-.5 1.9-.1.4-.2.8-.3 1.3-.1.3-.2.6-.3 1-.1.5-.4.9-.6 1.4-.5.9-.9 1.7-1.3 2.6-.3.5-.6.9-.9 1.4-.2.3-.4.6-.6 1-.1.2-.3.4-.5.7l-.9 1.2c-.5.6-.9 1.2-1.4 1.7-.4.1-.7.3-1.1.5-.5.3-.8.8-1.3 1.1-.3.2.5.5.8.3.6-.4 1-1 1.6-1.3.7-.3 1.3-.5 2-.8.8-.4 1.5-.8 2.3-1.2.9-.3 1.9-.6 2.8-.9.6-.2 1.2-.5 1.8-.8.3-.1.7-.2 1-.3 1.4-.4 2.6-1.1 3.9-1.7 2.2-1.1 4.6-1.8 6.9-2.7 2.3-1 4.4-2.2 6.6-3.5 1.1-.7 2.2-1.3 3.2-2 .9-.6 1.7-1.3 2.5-2.1.6-.4 1.2-1 1.9-1.4 1-.7 1.8-1.5 2.7-2.3.4-.3.9-.7 1.2-1.1v-.1c.4-.4.8-.7 1.2-1.1.5-.5.8-1.1 1.2-1.6.1-.1.1-.2.2-.3.1-.1.2-.2.2-.3.6-.7 1.2-1.5 1.7-2.2.3-.4.6-.8.8-1.3.3-.4.5-.8.8-1.2.3-.5.6-1.1.8-1.6.2-.5.4-1.1.6-1.7l.3-1.2c.1-.3.2-.6.3-.8.2-.4.4-.9.5-1.3.3-.9.6-1.8.8-2.8l.3-2.1c.1-.8.2-1.6.2-2.5.1-1.1.1-2.2-.1-3.3l-.3-2.1c-.1-.6-.2-1.1-.4-1.7-.2-.6-.4-1.2-.5-1.8-.1-.6-.3-1.2-.6-1.8-.3-.6-.5-1.3-.8-1.9-.4-.9-.8-1.7-1.2-2.6-.5-1.2-1-2.4-1.4-3.6-.3-.7-.5-1.4-.7-2-.1-.3-.3-.7-.4-1-.2-.6-.4-1.3-.6-1.9l-.3-1.5c-.1-.5-.1-1-.2-1.5-.1-1-.2-2-.2-3 0-.5.1-1 .3-1.5.2-.4.3-.9.5-1.3.3-.4.5-.8.8-1.1.2-.3.4-.5.6-.7l.9-.9c.1-.1.3-.2.5-.2.3-.1.6-.2.9-.2.2 0 .4 0 .7.1.6.2 1.1.4 1.7.7.5.2 1.1.5 1.5.8.5.3.9.7 1.4 1 .9.6 1.8 1.2 2.8 1.6.6.2 1.1.4 1.7.6.6.1 1.2.2 1.8.2.6.1 1.2.1 1.9.1h1.7c.3.1.6.2.9.2.4.1.8.1 1.2.2.2 0 .3 0 .5-.1.1-.1.1-.1.2-.1h.1c-.7-.2-1.3-.6-1.9-1-.5-.4-.9-.8-1.4-1.2l-.3-.3c-.1 0-.1-.1-.2-.1-.4-.3-.7-.6-1.2-.8-.6-.4-1.3-.7-2-.9-.9-.3-1.7-.4-2.7-.6.6-.2.6-.3.7-.3zm-11.5-6.9c.1-.6.2-1.1.2-1.7.1-.5.3-.9.6-1.3 0-.1.1-.1.1-.2l.1-.1h.1v.1c-.1.7-.3 1.5-.3 2.2 0 .7-.1 1.3-.1 2v2.1h-.1c-.2-.1-.4-.2-.5-.5-.1-.7-.2-1.7-.1-2.6zm-1.3 4.1c.5.2.9.4 1.4.6.1 0 .2.1.3.2h-.1c-.2 0-.5-.1-.7-.1-.5 0-.9 0-1.4.1-1 .1-2 .4-3 .7-1 .3-1.9.7-2.8 1.2-.5.3-1 .6-1.4.9-.2.1-.5.3-.7.4 0-.1-.1-.1-.1-.2.4-.2.6-.4.9-.7.4-.5.8-.9 1.3-1.3.9-.7 2-1.3 3.1-1.7.6-.2 1.2-.3 1.9-.3.4 0 .7 0 1 .1.1 0 .2 0 .3.1zM75.9 25c0 .6.1 1.2.2 1.8-.5-.5-1-.9-1.4-1.5.2-.6.5-1.2.8-1.8.1-.2.2-.4.4-.6h.1v.4c-.1.7-.1 1.2-.1 1.7zm-1 3.4l-.8-.8-.1-.1c.1-.4.2-.8.3-1.3 0-.1.1-.3.1-.4 0-.1.1-.2.1-.3L76 27c.1.7.2 1.3.3 2 0 .2.1.4.1.6-.4-.2-1-.7-1.5-1.2zm1.7 1.7c.1.3.2.6.2.9 0 .2.1.4.1.5-.6-.1-1.2-.3-1.8-.7-.5-.4-1-.8-1.4-1.3v-.2c0-.4 0-.8.1-1.2 0-.1 0-.2.1-.3.2.2.4.4.7.6.7.6 1.3 1.2 2 1.7zm-1.7-8c-.6.8-1 1.6-1.3 2.5-.3.1-.6.3-.8.4-.2.1-.4.2-.7.4l1.2-1.8c.5-.7 1-1.4 1.7-2 .1-.1.3-.2.4-.4h.1c-.2.4-.4.7-.6.9zm-2.1 3.2c.2-.1.4-.2.7-.3v.2l-.3 1.2c-.2.2-.6.4-.9.6-.3.2-.5.4-.8.6-.4.3-.9.7-1.3.9.3-.5.5-.9.8-1.4.3-.4.5-.8.8-1.2.3-.3.6-.5 1-.6zm-2.4 20.3c-1.1.4-2.1.9-3.2 1.2-2.3.6-4.9.4-7.2.2-1.2-.1-2.4-.3-3.5-.6-.5-.1-1-.3-1.4-.4-.8-.3-1.7-.7-2.5-.9-.8-.2-1.7-.4-2.6-.3l.1-.1c.3-.3.7-.6 1-.9.3-.3.7-.5 1-.7.3-.2.7-.4 1.1-.6.3-.1.7-.2 1-.4l.6-.3c.7.2 1.4.4 2 .7 1 .5 1.8 1.2 2.7 1.8 1.6 1.1 3.5 1.5 5.4 1.6 1.9.1 3.9-.2 5.7-.7.5-.2 1.1-.3 1.6-.5 0 .1-.1.1-.1.2-.6.2-1.2.4-1.7.7zm1-.1c-.3.3-.6.6-.9.8-1.7 1.2-3.8 2-5.9 2.2-2.2.2-4.2-.4-6.2-1.2-.6-.3-1.2-.5-1.9-.8 1.9.5 3.9.7 5.9.8 1.1 0 2.3 0 3.4-.1s2.2-.4 3.3-.9c.8-.2 1.6-.4 2.3-.8zm-20-.3c-.7 0-1.4 0-2.1.1.6-.2 1.4-.2 2.1-.1zM39.6 41c-.6-.2-1.2-.4-1.7-.6-.6-.2-1.1-.5-1.6-.8l-.6-.3c.3-.5.5-1 .8-1.5l.3-.6c.2-.3.4-.7.5-1 2.2.7 4.5 1.4 6.9 1.4 1.1 0 2.3-.1 3.4-.5.5-.2.9-.4 1.4-.6-1.2 1.1-2.4 2.1-3.8 2.9-1.4.8-2.9 1.3-4.4 1.8-.5 0-.8-.1-1.2-.2zm.7.3c-.6.2-1.2.3-1.9.5-1.2.3-2.3.5-3.5.8-.7.2-1.4.4-2.1.5.2-.2.4-.3.5-.5.3-.3.5-.6.7-.9.2-.3.4-.6.6-.8l.1-.1c.2-.3.3-.6.5-.8.1-.2.2-.3.2-.5.2.1.5.2.6.3.3.1.5.3.8.4.6.3 1.2.5 1.8.7.7.2 1.2.3 1.7.4zm8.3-4.8c-.5.2-1 .4-1.6.6-1.1.3-2.2.4-3.3.4-2.3 0-4.4-.7-6.5-1.4.2-.4.3-.8.5-1.2 1 .2 2 .5 3 .5 1.1 0 2.1-.1 3.2-.3 2-.5 3.7-1.4 5.3-2.7.5-.5 1.3-.6 1.9-.9.6-.3 1.2-.7 1.8-1.1.6-.4 1.2-.8 1.7-1.3.1-.1.2-.2.4-.3-1.1 2.1-2.5 4-4.2 5.8-.5.5-1 1.1-1.5 1.6-.2.1-.4.2-.7.3zm-29 1.6c.9-.8 1.8-1.6 2.7-2.5.8-.9 1.6-1.9 2.5-2.7.4-.4.8-1 1.1-1.5l.9-1.5c.6-1 1.3-1.9 1.6-3 .4-1.2 1.1-2.3 1.9-3.4.8-1 1.7-1.8 2.7-2.6.2-.2.4-.3.6-.5.2-.1.3-.2.5-.3.1 0 .1-.1.2-.1h.1c-.2.3-.4.5-.7.8-.4.4-.8.9-1 1.4-.2.6-.3 1.1-.4 1.7-.1.7-.3 1.2-.6 1.8 0 .1-.1.1-.1.2l-2.4 3c-.8 1-1.6 2-2.3 3-.9 1.3-1.7 2.7-2.7 3.9-.1 0-.1.1-.1.1-.5.6-1.1 1.2-1.8 1.7-.9.7-1.9 1.3-3 1.7-.6.2-1.2.4-1.7.6.7-.7 1.3-1.2 2-1.8zm-.1-.3c.2-.2.4-.5.5-.7.3-.4.7-.9 1-1.3.3-.4.5-.9.8-1.3.6-.9 1-1.7 1.5-2.6.4-.7.8-1.5 1.2-2.2.1-.1.1-.3.2-.5.1-.1.1-.3.2-.4.3-.4.5-.7.8-1.1.1-.1.1-.2.1-.3 0 0 0-.1.1-.2.3-.4.6-.9 1-1.3.4-.5.8-1 1.3-1.5.5-.6 1.1-1.1 1.6-1.7.2-.2.4-.3.6-.5.4-.2.7-.5 1.1-.7-.9.8-1.7 1.7-2.4 2.7-.3.5-.6 1-.9 1.6-.2.6-.4 1.2-.7 1.7-.6 1.1-1.2 2.1-1.8 3.1-.3.5-.7 1.1-1 1.6-.3.5-.8.9-1.1 1.3-.8.9-1.6 1.8-2.5 2.7-.5.6-1 1.1-1.6 1.6zm31.8-24.4c-.9.6-1.7 1.2-2.4 2-.7.9-1.4 1.8-2.2 2.5-.4.3-.8.6-1.2.8-.4.2-.8.4-1.2.4.1-.2.2-.4.3-.5.3-.6.7-1.1 1.1-1.6.3-.4.7-.9 1-1.3.3-.4.7-.6 1-.9.2-.2.5-.4.7-.5.5-.3 1-.5 1.5-.7.5-.2 1.1-.4 1.6-.5.2 0 .4-.1.6-.1-.2 0-.5.2-.8.4zm1.7-.7h.2c.4 0 .7-.1 1.1-.1h.1c.4-.1.8-.1 1.2-.2h.5c-.6.2-1.2.4-1.8.8-1.4.8-2.7 1.9-3.8 3-1.3 1.3-2.4 2.7-3.7 3.9-.6.5-1.2 1-2 1.4-.6.3-1.3.5-2 .4v-.1c.2-.4.4-.8.6-1.3.2-.4.5-.9.7-1.3.7.1 1.4-.3 1.9-.7 1-.6 1.8-1.4 2.5-2.4.4-.5.8-1 1.3-1.5l1.5-1.2c.6-.1 1.1-.5 1.7-.7zm-6.2 1.6c-.9.8-1.7 1.6-2.5 2.4-.8.8-1.6 1.7-2.3 2.6-.7.9-1.3 1.8-1.9 2.7-1.3 1.9-2.9 3.4-4.7 4.7-.9.6-1.8 1.2-2.9 1.6-.8.3-1.7.5-2.6.6.7-.8 1.4-1.7 2-2.5 1.6-2 3.2-3.9 4.9-5.7 1.7-1.7 3.6-3.4 5.7-4.6 1-.6 2.1-1 3.1-1.5.3-.1.6-.3.9-.4.2 0 .3-.1.5-.1h.1c-.1 0-.2.1-.3.2zm-10.2 5.8c-1.4 1.4-2.8 3-4.1 4.5.1-.2.1-.4.1-.7.1-.6.2-1.3.4-1.9.3-.7.8-1.2 1.2-1.7.2-.3.4-.5.6-.8.1-.1.1-.2.1-.3.3-.2.6-.4 1-.6.8-.5 1.7-.9 2.5-1.3.3-.2.6-.4 1-.5.6-.3 1.3-.6 1.9-.8.1-.1.3-.1.4-.2-1.8 1.3-3.5 2.8-5.1 4.3zM22.5 37.9c.8-.6 1.5-1.2 2.2-1.9.9.1 1.8.1 2.6 0 1-.1 2-.2 2.9-.6.9-.3 1.7-.8 2.5-1.4 1.9-1.5 3.5-3.5 5-5.5-.6 1-1.2 1.9-1.9 2.9-1.4 2-2.8 3.9-4.4 5.6-.5.5-1 1-1.6 1.5-.2.1-.5.1-.7.2l-1.2.3c-.7.1-1.5 0-2.2 0-.8-.1-1.4-.3-2.1-.5-.4-.2-.9-.3-1.3-.3.1-.2.1-.3.2-.3zm13.5-8c-.8 1-1.6 2-2.6 2.9-.8.8-1.6 1.5-2.6 2-.9.5-1.9.8-2.9.9-1 .1-2 .3-3 .1l.2-.2c.8-1 1.5-2.1 2.2-3.2.7-1.1 1.5-2.2 2.3-3.2h.1c1-.1 1.9-.3 2.8-.6.9-.3 1.8-.8 2.7-1.3 1.7-1.1 3.3-2.4 4.6-4 .7-.9 1.2-1.8 1.9-2.7.6-.9 1.4-1.8 2.1-2.6l1.5-1.5c-.2.3-.4.5-.6.8-.8 1-1.6 2-2.3 3.1l-2.1 3.3c-.7 1.1-1.3 2.2-2 3.3-.7.8-1.5 1.9-2.3 2.9zm6.8-7.9c1 .2 2.2-.3 3.1-.9 1.5-1 2.6-2.4 3.8-3.7 1.2-1.4 2.6-2.7 4.2-3.7 1.1-.7 2.2-1.1 3.4-1.4.1.1.3 0 .4 0 .2 0 .4 0 .5-.1.6 0 1.1-.1 1.7-.1.6 0 1.3-.1 1.9 0-.8.2-1.6.4-2.3.7-1 .4-2 1-3 1.6-2.1 1.3-3.7 3.1-5.4 4.9L48.4 22c-.9.9-1.7 1.8-2.6 2.6-.8.7-1.7 1.3-2.7 1.7-.5.2-1 .4-1.5.5h-.7-.1c0-.1 0-.1.1-.2.1-.2.2-.5.3-.7.3-.8.7-1.6 1-2.4.2-.6.4-1.1.6-1.5zm-1.9 4.9c1.6.3 3.4-.7 4.7-1.6.9-.7 1.8-1.5 2.6-2.4l2.7-2.7c1.8-1.8 3.4-3.7 5.5-5.2.9-.7 1.9-1.3 3-1.8s2.3-.8 3.5-1c-.8.4-1.6 1-2.3 1.5-1 .7-2 1.5-3 2.3-.9.8-1.8 1.6-2.6 2.6-.8.9-1.4 1.9-2.1 2.9-1.4 2-3.2 3.7-5.3 4.9-1.1.6-2.2.8-3.4 1-1.1.2-2.3.2-3.4-.1 0-.1.1-.2.1-.3-.1-.1 0-.1 0-.1zm.1.5c1.1.2 2.1.2 3.2 0 1-.2 2.1-.3 3.1-.7 1-.5 2-1.2 2.9-2 .9-.8 1.8-1.6 2.5-2.6s1.4-2.1 2.2-3.1c.8-1 1.6-1.8 2.5-2.6 1-.9 2.1-1.7 3.1-2.4.9-.6 1.8-1.4 2.8-1.8h1.1c-.6.3-1.1.6-1.6.9-2.1 1.3-3.8 3.2-5.1 5.3-.6.9-1.2 1.8-1.7 2.7h-.1c-1.5 2.7-3.7 5-6.5 6.4-1.5.7-3 1.1-4.6 1.4-.8.2-1.7.3-2.6.2-.7-.1-1.4-.3-2.1-.6 0-.1.1-.3.1-.4.1-.3.2-.5.3-.8.2.1.3.1.5.1zm1 1.8c.8.1 1.6.1 2.4 0 .8-.1 1.6-.3 2.4-.5.8-.2 1.6-.5 2.4-.8 2.2-1 4-2.5 5.4-4.3-.2.5-.5.9-.7 1.4-.6 1.2-1.3 2.4-2 3.5-.2.2-.5.4-.7.6-.5.4-1.1.9-1.6 1.3-1.1.7-2.3 1.3-3.5 1.6-1.2.4-2.4.6-3.7.6-.6 0-1.3 0-1.9-.3-.5-.2-1.1-.6-1.5-.9.2-.5.4-.9.6-1.4 0-.1.1-.2.1-.3.1-.3.2-.7.4-1 .6.2 1.2.4 1.9.5zm0 3.6c1.3 0 2.6-.1 3.8-.5 1.4-.4 2.7-.9 3.9-1.7.6-.4 1.1-.8 1.7-1.3l.2-.2c-.5.7-1 1.4-1.6 2-1.5 1.7-3.5 3-5.7 3.6-1 .3-2.2.5-3.2.5-1.1 0-2.2-.2-3.2-.5.4-1 .7-2.1 1.1-3.1.8.7 1.9 1.1 3 1.2zm12.2-3.6c-.6.5-1.2.9-1.8 1.3-.6.4-1.3.8-2 1.1-.2.1-.4.2-.6.2 1.6-1.6 2.9-3.6 3.9-5.6 1.2-2.2 2.3-4.4 3.7-6.5 1.4-2.1 2.7-4.3 4.8-5.8.9-.6 1.9-1.2 2.9-1.6.1 0 .2 0 .3.1h.7c-.5.3-1 .6-1.5 1-1.5 1.1-2.9 2.5-3.9 4.1-1.1 1.7-2 3.6-2.8 5.4-.8 1.8-1.7 3.5-2.5 5.3-.3.3-.8.7-1.2 1zm3.5-2.8c0-.5.1-1.1.1-1.6v-.4c.5-1 .9-2 1.4-2.9 1.1-2.3 2.3-4.4 4.1-6.2.8-.8 1.7-1.5 2.6-2.1.3-.2.7-.4 1-.6h.4c-1.6 1.5-3.2 3-4.7 4.6-1.4 1.6-2.9 3.3-3.5 5.4-.6 2-.7 4.1-.7 6.1v3.1c0 .5 0 1-.2 1.5s-.4.9-.8 1.3c0 0 0 .1.1.1-.4.6-.8 1.1-1.3 1.7-.5.6-1.1 1.1-1.6 1.7-.4.4-.7.8-1.1 1.1l-.2.2c.9-1.2 1.7-2.5 2.5-3.7.5-.9.9-1.7 1.2-2.7.3-1 .4-2.1.5-3.1 0-1.4.1-2.4.2-3.5zM71.5 14c-.6.2-1.1.5-1.6.8-.3.2-.6.3-.9.4-.3.1-.5.3-.8.2 0-.8.3-1.5.8-2.1l.1-.1c.1-.1.3-.1.5-.1s.4-.1.6-.1h.3c.6.1 1.3.3 1.9.4.2 0 .4.1.6.2-.5.1-1.1.2-1.5.4zm1.9-.2c.5.1.9.3 1.4.4h.1-1.1c-1.1.1-2.2.4-3.1 1.2-.5.4-1.1.6-1.5 1.1-.2.2-.4.5-.7.6-.1-.5-.2-.9-.2-1.4v-.2c.4 0 .7-.1 1.1-.3.7-.3 1.3-.7 1.9-1 .6-.2 1.3-.4 2.1-.4zm-5.1-1.1c-.3.2-.7.4-1 .7-.5.3-.9.7-1.3 1.1-.6.7-1.2 1.4-1.6 2.2l-1.2 2.7c-.2.4-.3.9-.4 1.3-.2.6-.4 1.1-.5 1.7-.1.2-.1.5-.2.7 0 .1-.1.1-.1.2-.1.3-.2.7-.3 1-.1.4-.2.8-.3 1.3-.2.8-.5 1.5-.7 2.3-.3 1.1-.7 2.1-1.2 3-.3.5-.5 1-.8 1.5v-.5-3.1c0-2 .1-4.2.6-6.1.6-2.2 2-4 3.5-5.6 1.5-1.6 3.1-3.1 4.7-4.6.3.1.5.1.8.2-.1-.1 0 0 0 0zm4.2 19.5c0 .3 0 .5.1.8-.1.1-.2.2-.2.3l-.6.6c-.4.4-.9.7-1.3 1-.9.5-1.9.9-2.9 1.2-1.1.3-2.3.6-3.5.5h-.4c.5-.4 1-.8 1.4-1.3.2-.2.4-.4.7-.6.1 0 .2-.1.3-.1 1-.5 2.1-1 3-1.6.9-.5 1.7-1.2 2.5-2 .4-.4.7-.7 1-1.1v.2c-.2.7-.2 1.4-.1 2.1zm-8-10.1c.2 1.1.5 2.2.8 3.3.3 1.1.6 2.1.6 3.3 0 1.1-.2 2.2-.5 3.2-.1.4-.3.7-.4 1-.4.4-.8.8-1.2 1.1-.2.2-.5.4-.7.7.2-.4.3-.8.5-1.2.4-1.3.2-2.5 0-3.8-.3-1.4-.6-2.8-.8-4.3-.1-.7-.1-1.4-.1-2.1 0-.2 0-.4.1-.6.2-.6.3-1.1.5-1.7.2-.5.3-.9.5-1.4.2-.5.4-1 .7-1.6.2-.4.4-.9.6-1.3-.2.7-.3 1.4-.4 2.1-.3 1.2-.4 2.2-.2 3.3zm-1.3 7.2c.2 1.3.6 2.6.2 3.9-.2.6-.5 1.3-.8 1.9-.3.2-.6.5-.9.7-.2.1-.3.3-.5.4.2-.3.3-.7.4-1.1.4-1.4.5-2.7.3-4.1-.2-1.3-.4-2.5-.4-3.7.2-.7.4-1.4.6-2 .1-.3.2-.6.2-.9 0 .4 0 .8.1 1.1.2 1.3.5 2.6.8 3.8zm-1.7 1.2c.2 1.4.3 2.8-.1 4.1-.2.8-.5 1.6-.9 2.2-.3.2-.5.4-.8.6-.1.1-.2.1-.3.2-.1 0-.1.1-.2.1s-.1.1 0 .1c-.2.2-.5.3-.7.5-.5.4-1.1.7-1.6 1.1-.1.1-.2.1-.3.2.3-.5.4-1.1.6-1.6.1-.3.3-.7.4-1 .1-.3.2-.6.2-1 .1-.5.2-.9.4-1.3.5-.8.9-1.6 1.4-2.4.2-.4.4-.7.6-1.2.1-.4.4-.7.5-1.1.2-.6.4-1.1.6-1.7 0 .7.1 1.4.2 2.2zm11.2 4.9c-.3.5-.7 1-1 1.5-.3.4-.6.8-1 1.1-.5.5-1.1 1-1.8 1.4-.4.3-.8.5-1.2.7-.5.3-1.2.5-1.8.6-.8.2-1.7.3-2.5.5-.7.1-1.3 0-2 0-.4 0-.8-.1-1.2-.1-.4-.1-.8-.1-1.1-.1-.5-.1-1-.2-1.5-.4-.1 0-.1-.1-.2-.1.1-.1.1-.1.2-.1.3-.2.7-.4 1.1-.6.3-.2.6-.3.8-.5.1-.1.1-.1.2-.1s.3-.1.3-.2l.1-.1c.6 0 1.2 0 1.8.2.6.2 1.1.3 1.7.3 1.2 0 2.3-.3 3.4-.7 1.2-.4 2.3-.8 3.3-1.5.5-.4 1-.8 1.4-1.3.4-.4.7-.7 1-1.1v.2c.1.1.1.2 0 .4zm.2.8c.1.1.1.3.2.4 0 .3.1.6.1 1 .1.6.1 1.2.2 1.9v.3c-1.2 1.3-2.5 2.4-4.1 3.1-1.5.6-3.3 1-4.9 1-1.8 0-3.4-.5-5-1.3L57 41.4c.4.1.9.2 1.3.3.5.1 1 .3 1.5.3h.7c.4 0 .9.1 1.3.2.3 0 .7.1 1 0 .8-.1 1.6-.2 2.4-.4.3-.1.5-.2.8-.2 1-.2 2-.6 2.9-1.3.5-.4 1.1-.7 1.6-1.1l.3-.3c.4-.4.8-.9 1.2-1.4.3-.5.6-.9.9-1.3zm-1.4-.6c-.5.5-.9.9-1.5 1.3-1 .7-2.1 1.2-3.3 1.5-1.2.4-2.3.7-3.5.7-.7 0-1.3-.3-2-.4-.3-.1-.6-.1-.9-.1.1 0 .2-.1.2-.1.1-.1.2-.1.3-.2.3-.2.7-.4 1-.6l1.2-.9c.1 0 .1-.1.2-.1.5 0 1 .1 1.5 0 1-.1 2-.3 3-.6s2-.7 2.8-1.2l1.2-.9.6-.6.1-.1c0 .3.1.6.1 1-.2.5-.6.9-1 1.3zm-5-6.3c.1-2.2-.8-4.2-1.3-6.3-.2-1.1-.3-2.2-.2-3.4.1-.7.2-1.6.4-2.3 0 .5.1 1 .1 1.5.2 1.3.6 2.6 1.1 3.8.6 1.3 1.2 2.5 1.8 3.7.3.6.6 1.3.6 1.9l-.1.1c0 .1-.1.1-.1.2-.2.3-.4.5-.6.8-.4.4-.7.9-1.1 1.3-.4.5-.8 1-1.2 1.4.3-.9.5-1.8.6-2.7zm-12.1 9.6l1.2-1.2c.4-.4.8-.9 1.2-1.3.2-.3.5-.5.7-.8-.1.6-.3 1.2-.5 1.9-.3.7-.4 1.7-.9 2.3-.1.1-.2.1-.3.2-.4.2-.7.3-1.1.5-.5.2-.9.4-1.4.5-.5.2-1.1.4-1.6.5h-.4v-.1l.1-.1.9-.6c.3-.2.5-.5.9-.6l1.2-1.2zm16.5 5.9c-.4.1-.9.3-1.3.4-1.9.5-3.8.7-5.7.4-1-.1-2.1-.3-3-.7-.9-.4-1.7-1-2.5-1.6-1.1-.8-2.3-1.4-3.6-1.7H55.1c.2-.2.5-.2.7-.3.1 0 .2-.1.3-.1.1 0 .2.1.3.1.5.2.9.5 1.4.7.8.4 1.6.8 2.4 1.1 1.5.6 3 .9 4.6.8 1.6-.1 3.3-.4 4.8-1.1 1.5-.6 2.6-1.6 3.7-2.8 0 .5.1 1 .1 1.4-.3 1-.6 1.9-1.1 2.8h-.1c-.4.3-.8.5-1.3.6zm1-17.3l.9-.6c.1-.1.2-.1.3-.2-.2.8-.3 1.6-.5 2.4l-.6.6c-.4.4-.7.8-1.1 1.1-.8.8-1.7 1.5-2.6 2-.6.4-1.3.7-1.9 1 .4-.4.7-.8 1.1-1.3.9-1.1 1.7-2.4 2.4-3.6.1-.1.1-.2.2-.3.5-.2 1.1-.6 1.8-1.1zm-2.1-.8c-.1.3-.3.7-.4 1-.1-.4-.2-.8-.4-1.1-.6-1.2-1.2-2.5-1.8-3.7-.6-1.2-1-2.5-1.2-3.8-.2-1-.4-2.1 0-3.1v-.1.4c0 .2 0 .5.1.7.1.6.3 1.1.5 1.7.4 1.1.9 2.1 1.5 3.1.6 1.1 1.1 2.2 1.6 3.3.1.2.1.3.2.5 0 .4 0 .8-.1 1.1zm-1.2-4.5c-.6-1.1-1.2-2.1-1.6-3.2-.2-.6-.4-1.1-.6-1.7-.1-.4-.1-.7-.1-1.1 0-.2.1-.5.1-.7 0 0 0-.1-.1-.1.2-.3.4-.6.7-.9.1 0 .1-.1.2-.1-.1.3-.1.5-.1.8 0 1.4.5 2.6 1.1 3.8l.3.6c-.1 0 0 .1.1.1 0 0 0 .1.1.1.2.5.5.9.6 1.4l.3 1.2c.2.7.2 1.4.3 2.1-.5-.7-.9-1.6-1.3-2.3zm7.7-7.4c.1.1.3.1.4.2-.6-.1-1.2 0-1.9.1-1.2.3-2.4.9-3.4 1.6-.5.3-1 .7-1.4 1.2-.3.4-.6.8-1 1.1-.2-.5-.4-.9-.6-1.4.6-.2 1.1-.9 1.7-1.2 1-.7 1.9-1.5 3.2-1.7.8-.1 1.5-.1 2.3 0 .3 0 .5 0 .7.1zM74 11.4c.5.4 1 1 1.6 1.3 0 0 .1.1.1.2v.1c-.2-.1-.4-.1-.6-.2-.4-.4-.9-.7-1.3-1.1-.4-.4-.8-.8-1.1-1.3.4.2.8.6 1.3 1zm-3.1-2.5c.4.3.7.6 1.1.9.1.2.2.4.4.6.3.5.7.9 1.1 1.3.3.3.7.6 1 .9-.2-.1-.3-.1-.5-.2-.1 0-.3-.1-.4-.1-.5-.4-1-.8-1.5-1.3-.8-.8-1.5-1.6-2-2.6.3.1.6.3.8.5zM69.6 8c.5 1 1.1 1.9 1.9 2.7.5.5 1 .9 1.5 1.3l.1.1c-.2-.1-.4-.1-.6-.2-.4-.1-.9-.3-1.3-.4-.2-.1-.4-.3-.6-.4-.8-.7-1.4-1.5-1.9-2.4-.4-.7-.7-1.4-1.1-2 .7.4 1.3.9 2 1.3zm-4.5-2.6c.4.2.9.4 1.3.6.3.2.5.4.7.7.5.8.9 1.8 1.5 2.6.5.8 1.1 1.4 1.8 2-.7-.1-1.5-.2-2.3-.2-.4-.3-.8-.6-1.1-1-.4-.5-.7-.9-.9-1.5-.2-.5-.4-1.1-.7-1.6-.6-.9-1.3-1.7-2-2.4.5.3 1.1.5 1.7.8zm-5.4-1.8c.7.2 1.5.3 2.2.6.2.1.3.1.5.2.4.3.7.7 1.1 1.1.8.9 1.4 1.8 1.9 2.9.2.5.4 1 .7 1.4.3.4.7.8 1.1 1.1-.4-.3-.8-.5-1.3-.8-.3-.2-.6-.5-1-.7-.3-.3-.6-.7-.9-1.1-.7-1-1.5-1.9-2.4-2.8-.8-.8-1.8-1.5-2.8-2.1.4.1.7.2.9.2zm-6.8-.8c.8 0 1.7.1 2.5.1.9.1 1.8.2 2.6.4h.3c.1.1.3.1.4.2 1.1.7 2.2 1.5 3.1 2.4.4.5.9.9 1.3 1.4.4.5.7.9 1.1 1.4l.2.2c-.8-.5-1.7-1.1-2.5-1.6-.6-.4-1.1-.7-1.7-1-.3-.1-.6-.3-.8-.5-.8-.5-1.7-.9-2.6-1.3-.6-.3-1.2-.5-1.8-.8-.6-.2-1.1-.4-1.7-.7-.3 0-.4-.1-.6-.1.1-.1.1-.1.2-.1zM50 3c.3.1.6.1.9.2.8.1 1.6.4 2.4.7 1.1.4 2.2.9 3.4 1.4.6.2 1.1.5 1.6.8.5.2.9.5 1.4.8.8.4 1.6.9 2.3 1.4.6.4 1.1.8 1.6 1.1.7.4 1.3.9 1.9 1.3.1.1.2.1.2.2v.1h-1.3c-.2 0-.3-.1-.5-.2-.8-.3-1.5-.7-2.3-1-1.6-.8-2.9-1.9-4.2-3-.6-.5-1.3-1.1-2-1.5-.7-.4-1.5-.7-2.2-1-.8-.4-1.6-.7-2.5-1-.3-.1-.5-.2-.8-.3h.1zm-.7 0c.4.1.7.2 1 .3.9.3 1.7.6 2.5 1 .9.4 1.8.7 2.5 1.2.8.5 1.5 1.1 2.2 1.7 1.2 1.1 2.5 2.1 4 2.8.7.4 1.5.7 2.3 1h.1c-.9 0-1.8 0-2.7.1h-.4l-1.2-.6L57.2 9c-.8-.5-1.5-1.1-2.2-1.8-.6-.6-1.2-1.2-1.9-1.7-1.3-.9-2.8-2-4.3-2.5h-.1.6zm.6.8c.7.4 1.4.9 2.2 1.4.4.2.7.5 1.1.7.4.3.7.6 1 .9C55.5 8 56.9 9 58.4 10c.6.4 1.3.8 1.9 1.1-.6 0-1.2.1-1.8.1-.5 0-1 .1-1.4.1H57c-.4-.2-.7-.4-1.1-.6-.6-.5-1.2-1-1.6-1.6l-1.2-1.8c-.4-.6-.9-1.2-1.4-1.7-.9-1-2.1-1.8-3.3-2.5h-.1c.6.2 1.1.4 1.6.7zm-2-.6c.7.3 1.3.7 1.9 1.1.7.5 1.2 1 1.8 1.6.5.6 1 1.2 1.5 1.9.4.6.7 1.2 1.1 1.7.4.5 1 1 1.5 1.4l.9.6h-.2c-.6-.1-1.2-.1-1.7-.3-.7-.2-1.3-.5-1.9-.9-.5-.4-1-.9-1.4-1.4-.4-.6-.6-1.2-.9-1.8C50 6 49.1 5.3 48 4.8c-.6-.3-1.2-.5-1.8-.7-.2-.1-.5-.2-.8-.3.8-.3 1.7-.5 2.5-.6zm-3.4 1c.2-.1.5-.2.7-.3.2.1.5.2.8.2.8.3 1.5.5 2.2.9.7.4 1.2.8 1.7 1.5.3.5.5 1.1.8 1.7.6 1.1 1.5 2 2.6 2.6.8.4 1.6.6 2.4.7-.7.1-1.4.1-2 .2-.5-.1-.9-.1-1.4-.4-.6-.3-1.2-.8-1.8-1.2-.6-.4-1.2-.9-1.8-1.4-.5-.5-.9-1-1.4-1.6-.9-1-1.9-2.1-3.1-2.6-.1 0-.2-.1-.3-.1.2-.1.4-.2.6-.2zm-3 1.1c.7-.3 1.4-.5 2-.8.7.2 1.5.9 1.9 1.3 1 .9 1.8 2 2.8 2.9.9.9 2 1.7 3.1 2.4.5.3.9.5 1.5.7-.4.1-.9.2-1.3.2h-1.6c-.3 0-.7-.1-1-.2-.8-.2-1.4-.5-2.1-1-.6-.4-1.2-.9-1.6-1.5-.4-.5-.7-1.1-1.1-1.5-.5-.5-1-.8-1.6-1.2-.5-.3-.9-.6-1.5-.7-.2-.1-.4-.1-.5 0 .3-.2.7-.4 1-.6zm-4.4 2.5c.7-.5 1.4-.9 2.1-1.3.2-.1.5-.2.7-.4h.2c.8-.2 1.5.1 2.1.6.6.4 1.3.8 1.7 1.3.4.5.7 1.1 1.1 1.6.8 1 2 1.8 3.2 2.2.5.2 1.1.3 1.6.3h.6-.3c-.5.1-1 .2-1.5.4-.7.1-1.4.2-2.1-.1-.6-.3-1.1-.7-1.7-1.1-.6-.4-1.1-.8-1.6-1.4-.4-.5-.8-.9-1.4-1.3-.9-.4-2.1-.6-3.2-.6-.6 0-1.2 0-1.7.1-.1 0-.2 0-.3.1.1-.2.3-.3.5-.4zm-1 .6s.1 0 0 0c.4-.1.7-.2 1-.3.7-.1 1.3-.1 2 0s1.4.2 2 .4c.7.3 1.3.7 1.8 1.3.4.5.8.9 1.4 1.3.5.4 1 .8 1.6 1.1.6.4 1.2.5 1.9.5h-.3c-.3 0-.7-.1-1-.2-.5-.2-1.1-.5-1.6-.7-.3-.1-.6-.2-.8-.4l-2.4-1.5c-.2-.2-.5-.3-.8-.4-.6-.3-1.2-.4-1.8-.5-.7-.1-1.4-.2-2.2-.3h-.7c-.2 0-.3 0-.5-.1.2 0 .3-.1.4-.2zm-2.7 2c.3-.3.7-.4 1-.6.3-.1.6-.2.9-.2.2 0 .5-.1.7-.1.7-.1 1.4.1 2 .2.5.1.9.2 1.4.3.3.1.7.2 1 .3.8.3 1.5.8 2.2 1.3.4.3.9.6 1.4.8.6.3 1.3.6 1.9.8.1 0 .1.1.1.1-.1 0-.1.1-.2.1h-.1c-.1 0-.1 0-.2.1-.3 0-.6-.1-.9-.1-.6-.1-1.2-.3-1.8-.5-1.3-.4-2.5-1-3.7-1.5-1.1-.5-2.2-.7-3.4-.8-.6-.1-1.2-.1-1.8-.1h-.7-.1c.1 0 .2 0 .3-.1zm-.5.4c.1 0 .3 0 .4-.1.6-.1 1.3-.1 1.9 0 1.5.1 2.8.4 4.2 1 .7.3 1.3.6 2 .9l1.8.6c.7.2 1.4.4 2.1.5-.2.1-.4.1-.7.2-.2 0-.4 0-.6.1l-2.1.3c-1.4.1-2.9.1-4.3-.3-.8-.2-1.5-.4-2.2-.8-.6-.4-1.2-.8-1.9-1.1-.4-.2-.8-.5-1.2-.6h-.1l.7-.7zm-3 2.8c.5-.4.9-.9 1.4-1.3l.7-.7c.1.1.2.1.3.2.2.1.3.2.5.3.7.3 1.3.8 2 1.2 1.2.7 2.5 1.1 3.9 1.3 1.4.2 2.8.2 4.2 0 .1 0 .2 0 .3-.1-.5.2-1.1.4-1.6.6-.6.2-1.1.5-1.7.7-.2.1-.5.2-.7.3-1.5.3-3 .3-4.4.2-1.1-.1-2.2-.4-3.3-.9-.8-.4-1.6-.7-2.4-.9.3-.4.6-.6.8-.9zm-1.5 1.5c.2-.1.3-.3.5-.4 1.1.2 2.1.8 3.1 1.2 1 .4 2.1.6 3.1.6 1 .1 2.1.1 3.1 0-.1.1-.3.1-.4.2-.5.2-1 .5-1.5.8-.3.1-.5.3-.7.4-.6.1-1.1.2-1.6.3-.8.1-1.6 0-2.4-.1-.8-.1-1.9-.3-2.5-1-.5-.5-.8-1.2-.7-1.9v-.1zm-.3.3c0 .7.4 1.4 1 1.9s1.5.7 2.3.9c1 .2 1.8.3 2.8.2.3 0 .6-.1 1-.2-.3.2-.5.3-.8.5-.7.4-1.4.9-2.1 1.3-.5 0-1.1 0-1.6-.1-1-.1-2-.6-2.7-1.3-.5-.5-1-1.2-1-2 .3-.5.7-.8 1.1-1.2zM26.5 17c0-.1.1-.1.1-.2.1.8.6 1.4 1.2 1.9.7.6 1.6 1.1 2.6 1.2.5.1 1 .1 1.5.1-.2.1-.4.2-.6.4l-.1.1c-.5.2-1 .2-1.5.3-.8.1-1.5 0-2.2-.5-.5-.4-1-.8-1.2-1.5-.2-.5-.1-1.2.2-1.8zm-4.1 4.6c.3-.3.6-.6.8-.9.2-.2.4-.4.5-.7.1-.1 1.1-1.3 1.1-1.4 0-.1.1-.1.1-.2l.7-.7c-.1.5 0 1.1.2 1.5.4.6 1 1.2 1.6 1.5.7.3 1.4.4 2.1.3-.3.1-.6.1-.9.2-.6.1-1.1.2-1.7.2H25c-.5 0-.9 0-1.4.1-.3 0-.6.1-1 .1h-.5c.2.1.3 0 .3 0zM21 23c.1-.1.2-.1.2-.2.6-.2 1.2-.4 1.9-.5.3 0 .5-.1.8-.1h.9c.3-.1.7 0 1 0h.2c.8-.1 1.6-.2 2.4-.2h.4c-.1.1-.1.1-.1.2-.4.3-.8.5-1.1.8-.1 0-.1.1-.2.1-.2.1-.4.1-.6.2-.4.1-.8.3-1.3.4-.9.3-1.8.3-2.7.4l-2.7.3c-.1 0-.3 0-.4.1.4-.6 1.1-1.3 1.3-1.5zm-1.9 1.9c.6-.3 1.2-.3 1.9-.4.9-.1 1.8-.2 2.7-.2.9-.1 1.7-.3 2.6-.5.1 0 .1 0 .2-.1-.2.1-.4.3-.6.4-.5.3-1 .7-1.5 1-.1.1-.2.1-.3.2-.5.3-1 .6-1.4.9-.3.1-.5.1-.8.1-.7.1-1.4.1-2.1-.1l-1.5-.6c.2-.2.6-.6.8-.7zm-3 2.7c.4-.3.7-.7 1.1-1 .2-.1.3-.3.5-.4 0 0 .2-.1.3-.3h.1c.3.2.7.3 1.1.4.5.2 1.1.4 1.7.4.5 0 1-.1 1.4-.1-.1.1-.2.2-.4.3-.9.6-1.7 1.1-2.6 1.7-.4.3-.9.6-1.4.8-.3-.1-.6-.3-.9-.5-.3-.1-.6-.3-.9-.4-.2-.1-.5-.1-.6-.2.3-.4.5-.6.6-.7zm-3 2.7c.5-.4 1-.9 1.5-1.3.2-.2.5-.4.7-.7.2.1.4.1.5.2.5.2.9.5 1.4.7.1.1.3.1.4.2-.1.1-.3.1-.4.2-.4.2-.8.4-1.1.6-.3.1-.5.3-.8.4h-.4c-.3 0-.7 0-1-.1-.3-.1-.6-.2-.9-.2 0 .1.1.1.1 0zM10.9 32c.6-.5 1.3-.9 1.9-1.3.5-.1 1 .3 1.6.3h.7c-1 .5-1.9 1.1-2.9 1.6-.3.2-.6.3-1 .5-.1 0-.2-.1-.2-.1-.2-.1-.4-.3-.6-.5.1-.2.3-.4.5-.5zm-3.8 2.1c.6-.3 1.2-.5 1.7-.8.4-.2.8-.4 1.1-.7.3.2.5.4.8.5-.2.1-.3.1-.5.2-.8.2-1.6.5-2.4.8-.3.1-.6.1-.9.2v-.1c.1 0 .1 0 .2-.1zm-3.5 2.3c-.3-.1-.5-.3-.7-.4.4 0 .8-.1 1.2-.1.8-.1 1.6-.2 2.3-.5.6-.2 1.2-.3 1.8-.4.4-.1.7-.2 1.1-.3.3-.1.7-.3 1-.4-.2.2-.5.4-.7.5-.6.5-1.1.9-1.7 1.3-.6.4-1.3.6-2 .7-.4.1-.8.2-1.3.2-.3-.3-.7-.4-1-.6zM7.8 38c-.4-.1-.7-.2-1.1-.3-.4-.1-.9-.3-1.3-.4-.1 0-.1-.1-.2-.1.2 0 .3 0 .5-.1.7-.1 1.5-.2 2.1-.5.9-.4 1.6-1.1 2.3-1.7.4-.3.9-.6 1.1-1 .5-.2 1.1-.4 1.6-.7-.4.4-.7.9-1 1.4-.5.8-.9 1.7-1.6 2.2-.4.2-.8.5-1.2.8-.3.1-.8.4-1.2.4zm2.1.5c-.6-.2-1.1-.3-1.7-.5.5-.1.9-.3 1.3-.5.4-.3.8-.5 1.1-.8.3-.3.6-.7.9-1.1.5-.9 1-1.8 1.8-2.5l.3-.3c.1-.1.2-.1.3-.2.7-.4 1.3-.8 2-1.1.3-.2.6-.4.9-.5.2-.1.5-.3.7-.4-.3.3-.6.7-.9 1-.7.8-1.3 1.7-1.9 2.6l-1.5 2.4c-.5.7-1.1 1.3-1.9 1.7-.5.1-1 .2-1.4.2zm1.8.6c-.4-.1-.8-.2-1.2-.4.1 0 .3-.1.4-.1.8-.2 1.6-.6 2.2-1.3.7-.7 1.1-1.6 1.7-2.5.6-.9 1.1-1.8 1.8-2.7.7-.9 1.6-1.8 2.4-2.6 0 0 .1 0 .1-.1.1 0 .2-.1.3-.1 0 0 .1 0 0-.1.3-.2.5-.3.7-.5.5-.3.9-.7 1.4-1 .1-.1.3-.2.4-.2-.5.5-1 1.1-1.5 1.7-.6.8-1.1 1.6-1.5 2.5-.4.8-.7 1.7-1.2 2.5-1.2 2-2.8 4.9-5.5 5-.1 0-.3 0-.5-.1zm2.9.9h-.2c-.3-.1-.7-.2-1-.3-.2-.1-.4-.1-.7-.2 2.3-.3 4-2.6 5.1-4.5 1-1.7 1.6-3.7 2.8-5.2.6-.8 1.3-1.5 2-2.2.1-.1.3-.2.4-.4.2-.1.4-.2.5-.3.2-.1.4-.3.7-.4.5-.3 1-.6 1.4-.9.2-.2.4-.3.7-.5l.9-.6c.2-.2.5-.3.7-.5h.1c0 .1-.1.1-.1.2l-.3.3c-.4.5-.8 1-1.2 1.4-.4.5-.7.9-1.1 1.4-.1.1-.3.2-.4.2-.3.2-.6.4-.8.6-.6.5-1.2 1-1.7 1.6-1.1 1.1-2.1 2.4-3 3.7-.9 1.3-1.6 2.7-2.4 4-.6.9-1.4 2-2.4 2.6zm.8.1h-.2c-.1 0-.2 0-.3-.1.9-.5 1.7-1.4 2.2-2.3.9-1.4 1.6-2.9 2.5-4.3.9-1.4 2-2.7 3.2-3.9.6-.6 1.3-1.2 2-1.7.1 0 .1-.1.2-.1-.2.4-.5.8-.7 1.1-.3.6-.7 1.3-1 1.9-.2.4-.4.9-.7 1.3-.4.8-.9 1.5-1.3 2.2-.3.5-.6 1.1-1 1.6-.6.8-1.2 1.7-2 2.4-.2.1-.3.3-.5.4-.8.7-1.6 1.1-2.4 1.5zm4.5 1.3c-.3-.1-.6-.2-.9-.2-.8-.2-1.5-.4-2.3-.6.1-.1.3-.2.4-.3.2 0 .4-.1.6-.2.6-.2 1.2-.3 1.8-.6.9-.4 1.8-.8 2.7-1.4.8 0 1.5.3 2.2.6.7.2 1.3.2 2 .3.7 0 1.5.1 2.2-.1.3-.1.6-.1 1-.2-1 .8-2.2 1.5-3.5 1.8-1.1.3-2.2.4-3.3.7-1.1.3-2 .3-2.9.2zm8.2 1.9c-.7-.1-1.3-.3-1.9-.5-.6-.2-1.2-.3-1.8-.4-.6-.1-1.2-.3-1.8-.4l-1.5-.3c.4 0 .9 0 1.3-.1.6-.1 1.1-.3 1.6-.4.6-.1 1.1-.2 1.7-.3 2.1-.5 3.9-1.6 5.4-3.1 1.7-1.6 3.1-3.5 4.4-5.4 1.5-2.1 2.9-4.3 4.2-6.5.7-1.1 1.3-2.2 2-3.3.1-.1.1-.2.2-.3-.2.4-.3.8-.5 1.2-.3.6-.5 1.3-.8 1.9-.1.3-.2.6-.4 1l-.6 1.5c-.2.6-.4 1.3-.7 1.9-.2.4-.3.7-.4 1.1-.8 1.1-1.6 2.1-2.2 3.3-.7 1.3-1.6 2.5-2.5 3.8-.9 1.2-1.7 2.5-2.8 3.5-.5.5-1.1.9-1.8 1.3-.3.2-.7.3-1.1.5.2-.1.1 0 0 0zm3.3.1c-.1.1-.2.1-.2.1-.2.1-.4.2-.6.2-.2 0-.4-.1-.6-.1-.3 0-.5 0-.8-.1-.3-.1-.6-.1-.8-.2.7-.2 1.3-.6 1.9-1 1.3-.9 2.4-2.1 3.3-3.5.9-1.4 2-2.8 2.8-4.3.5-1 1.2-1.9 1.8-2.8-.2.4-.3.9-.5 1.3-.2.7-.5 1.4-.8 2-.3.6-.6 1.2-.9 1.9-.4.9-.9 1.7-1.3 2.6-.3.7-.7 1.3-1.2 1.8-.1.1-.2.3-.3.4-.3.3-.6.6-1 .9-.2.5-.5.6-.8.8zm3.1.6h-1.1c-.2 0-.4-.1-.6-.1h-.5v-.1l.2-.2c.7-.1 1.3-.2 2-.4.9-.3 1.8-.4 2.7-.7 1.4-.4 2.9-.7 4.3-1.1h.3c-.3.2-.6.4-1 .6-.8.4-1.6.7-2.4 1-.7.3-1.4.6-2.2.9-.2.1-.4.1-.6.2-.4-.1-.8-.1-1.1-.1zm9-.6c-.2 0-.4.1-.6.1-.6.1-1.2.1-1.9.2h-.6c-.5 0-1.1.1-1.6.1s-.9.1-1.4.1H36c.8-.3 1.6-.6 2.4-1 .8-.3 1.6-.6 2.4-1 .4-.2.8-.5 1.2-.7.2-.1.4-.2.5-.3 3.5-1.2 6.3-3.6 8.8-6.3.5-.6 1.1-1.2 1.6-1.8-.1.5-.2 1-.3 1.4-.2.7-.4 1.4-.7 2-.5 1.4-1.3 2.8-2.3 3.8-1 1-2.2 1.8-3.5 2.3-.8.5-1.7.9-2.6 1.1zm4.8-1.4l-1.5.6c-.2.1-.5.2-.7.3-.3.1-.7.3-1 .3h-.5c.6-.2 1.2-.5 1.8-.7 1.3-.6 2.6-1.3 3.6-2.3 1.1-1.1 1.8-2.4 2.4-3.8.3-.7.5-1.4.7-2.2.2-.6.4-1.2.3-1.9.9-1.3 1.8-2.6 2.5-4 .5-1 1-2.1 1.6-3.2 0 .3 0 .7-.1 1-.1 1-.1 2.1-.2 3.1s-.2 2-.4 3-.7 1.9-1.1 2.8c-.9 1.7-2 3.5-3.4 4.9-.3.2-.5.3-.8.5-.6.3-1.2.7-1.8 1-.5.3-1 .5-1.4.6zm.4 4c.1-.1.1-.2.2-.3 1.1-.3 2.3-.3 3.4-.2.2 0 .5.1.7.1 2 .7 4 1.7 6 2.5 2 .7 4 1.1 6.1.9 2-.2 4.1-.9 5.8-2 .6-.4 1.2-.9 1.6-1.4l-.6.9c-.6.9-1.4 1.6-2.3 2.2-.9.7-1.9 1.5-3 2.1-.9.6-1.8 1.1-2.7 1.5-1.1.4-2.3.4-3.4 0s-2.1-1-3-1.5c-1.1-.6-2.1-1.4-3-2.2-.9-.7-1.8-1.5-2.8-2-.8-.4-1.6-.7-2.5-.5-.2-.1-.4-.1-.5-.1zm-.3.3c.4-.2.9-.3 1.3-.3 1.1 0 2 .6 2.9 1.2 1 .7 1.9 1.5 2.9 2.3 1 .7 2 1.3 3.1 1.9 1.6.9 3.5 1.6 5.4 1 .9-.3 1.8-.8 2.6-1.3 1-.6 2-1.3 2.9-2 .9-.7 1.9-1.5 2.6-2.4.6-.8 1-1.7 1.3-2.6.1-.1.2-.2.2-.3v.1c0 .4.1.8.1 1.2v.7c0 .2 0 .3-.1.5 0 .5-.1 1-.1 1.4v.2c-1.1 2.1-2.8 3.7-4.9 4.8-1.9.9-4.1 1.5-6.2 1.4-1.1-.1-2.3-.2-3.3-.8-1.1-.6-2-1.4-2.8-2.3-.7-.8-1.3-1.8-2.2-2.5-.8-.6-1.7-1.1-2.7-1.5-1.1-.4-2.2-.5-3.3-.4.1 0 .2-.2.3-.3zm-.7 1c.1-.2.2-.3.3-.5 1.8-.4 3.6.3 5.2 1.3.5.3 1.1.7 1.5 1.2.4.4.7.9 1 1.3.7.9 1.4 1.7 2.4 2.3 1.7 1.1 3.7 1.4 5.7 1.3 2-.1 4-.7 5.8-1.7 1-.6 1.9-1.2 2.7-2.1.6-.6 1-1.3 1.4-2 0 .2.1.3.1.5v.6c0 .4-.1.8-.1 1.2 0 .3-.1.6-.2.8-.3.6-.6 1.2-1 1.7-.2.2-.3.5-.5.7-1 .9-2.3 1.7-3.5 2.3-1.7.9-3.7 1.5-5.7 1.2-2.4-.4-4.5-2.2-6.1-3.9-.8-.9-1.6-1.9-2.4-2.9-.7-.9-1.5-1.6-2.5-2.1-.9-.4-2-.9-3-.8-.6 0-1.1.2-1.7.3.2-.2.4-.4.6-.7zm26.2 6.6c0-.2.1-.3.1-.5h.1c0 .1 0 .2.1.3.1.6.3 1.3.4 1.9.1.5.3 1 .4 1.5.2.5.3 1 .5 1.5.1.5.3.9.5 1.4.2.5.3 1 .5 1.5.2.7.5 1.4.7 2.1.2.9.4 1.8.5 2.7l-.9-.9c-.7-.6-1.4-1.3-2-2-.6-.7-1.1-1.6-1.4-2.5-.2-.6-.5-1.2-.7-1.8.1-.5.3-1 .4-1.5.2-.6.3-1.2.5-1.8 0-.6.1-1.2.3-1.9zm-29.1-2c.2-.5.5-1 .8-1.5.1-.1.2-.3.2-.4.3-.5.5-.9.8-1.4.1-.2.2-.3.3-.5.8-.2 1.6-.4 2.3-.3 1.3.2 2.7.8 3.7 1.7.9.8 1.6 1.8 2.4 2.8.8 1 1.6 1.9 2.6 2.7 1.5 1.3 3.3 2.5 5.4 2.6 1.8.1 3.6-.4 5.2-1.2 1-.5 1.9-1 2.8-1.7-.3.3-.6.7-.9.9-.7.6-1.5 1.2-2.4 1.6-.3.1-.6.3-1 .5-.5.2-1 .5-1.6.7-.5.2-1.1.3-1.6.4-.7.2-1.5.3-2.2.3-.7 0-1.5.1-2.2.1-.5 0-1 0-1.5-.1-.2 0-.5-.1-.7-.1-.1-.1-.3-.2-.4-.3-.3-.2-.6-.4-.8-.7-.5-.5-1-1.1-1.6-1.6-1-1-2.1-1.9-3.4-2.5-1.1-.6-2.3-1.1-3.6-1.4-.5-.1-1.1-.2-1.6-.2-.4 0-.9.1-1.3 0 .2 0 .3-.2.3-.4zm-.2.7h.6c.6 0 1.3-.1 1.9 0 1.5.2 3 .9 4.3 1.6 1.4.8 2.6 2 3.8 3.2.5.5 1 1 1.6 1.5l.1.1c-.6-.1-1.2-.1-1.8-.2-.9-.1-1.8-.2-2.7-.4h-.2c-.7-.5-1.2-1-1.8-1.6-.6-.7-1.3-1.2-2-1.6-.8-.4-1.6-.7-2.4-1-.5-.1-.9-.3-1.4-.4-.2-.1-.4 0-.6 0l.6-1.2zm-1.4 4.3l.3-1.2c.1-.4.2-.7.3-1.1.1-.2.2-.5.3-.7h.2c.5 0 1 .2 1.4.4.9.3 1.9.6 2.7 1.1.9.5 1.5 1.1 2.2 1.8.4.5.9.9 1.4 1.2-.4-.1-.8-.1-1.2-.2-.8-.1-1.5-.2-2.3-.3-.7-.1-1.4-.3-2.1-.4-.5-.1-1-.2-1.5-.2-.5-.1-1-.1-1.4-.2-.4 0-.4 0-.3-.2zm-.3 1.3c0-.1 0-.2.1-.3.7.1 1.4.1 2.1.2.5.1.9.1 1.4.2.5.1 1.1.1 1.6.3.7.2 1.4.3 2.1.3.4 0 .8.1 1.1.1-.5.4-1.3.6-1.9.7-.7.2-1.4.5-2 .6-1.5.3-3.1 0-4.4-.8-.1-.4-.1-.9-.1-1.3zm-.2 3.1c0-.4.1-.7.1-1.1v-.4c1.3.7 2.8 1.1 4.2.8.8-.1 1.6-.4 2.5-.7.7-.2 1.5-.4 2-.8.2 0 .5.1.7.1 1 .1 2 .3 2.9.4.5.1 1 .1 1.5.2-.4.3-.9.6-1.3.9-.5.3-1.1.6-1.6.9-1.1.4-2.3.7-3.5.9-1.2.2-2.6.5-3.8.4-.7 0-1.3-.2-2-.5-.5-.2-1.3-.4-1.7-.8h-.1c.1-.2.1-.3.1-.3zm0 .4c.4.3 1 .4 1.5.6.6.3 1.1.4 1.8.5 1.4.2 2.8-.1 4.2-.3 1.3-.2 2.7-.5 3.9-1 .6-.2 1.1-.6 1.7-.9.4-.3.9-.5 1.3-.9h.1c.9.2 1.9.2 2.8.2h.9c.5 0 1 0 1.5-.1-1.2.5-2.4 1.1-3.3 2.1-.8.8-1.4 1.7-2.4 2.3-.9.6-1.8 1.1-2.8 1.4-2 .7-4.2 1.2-6.2.8-2-.4-3.8-1.3-5.1-2.9 0-.6 0-1.2.1-1.8zm-.1 2.2c1.2 1.4 2.9 2.2 4.7 2.6 2 .5 4 .2 5.9-.4 2.1-.7 4-1.6 5.5-3.3.8-.9 1.6-1.6 2.7-2.2.7-.4 1.4-.6 2.1-.9.4-.1.8-.2 1.3-.3.7-.2 1.4-.4 2.1-.8l1.8-.9c.5-.2 1-.5 1.4-.9.6-.5 1.2-1 1.7-1.6l1.2-1.5c-.6 1.3-1.2 2.7-1.9 3.9-.9 1.5-2.1 2.9-3.4 4.1-1.8 1.6-3.8 3.2-6.2 3.7-1.9.4-4 0-5.8.6-1 .3-1.8 1-2.8 1.4-1.1.5-2.4.5-3.5.2-1.2-.3-2.4-.8-3.6-1.3-1-.4-1.8-.9-2.8-1.2-.3-.3-.3-.8-.4-1.2zm.2 2.4v-.7-.2c.9.2 1.7.7 2.5 1.1.9.4 1.7.7 2.7 1 1.4.5 3.2.9 4.6.3 1-.4 1.9-1.2 3-1.5 1-.3 2-.3 3.1-.4.9 0 1.9-.1 2.8-.3 1.1-.2 2.1-.7 3-1.2 1-.6 1.9-1.3 2.8-2.1 1-.8 1.9-1.7 2.7-2.7.8-1 1.5-2.1 2.1-3.3.4-.8.8-1.7 1.1-2.5-.2.7-.4 1.5-.6 2.2-.1.4-.2.9-.3 1.3-.1.5-.3 1-.5 1.5-.1.4-.2.7-.4 1.1-.3.7-.5 1.4-.8 2.1-.1.2-.3.3-.5.5l-1.3 1.3-.1.1c-.2.2-.5.4-.7.5-.3.2-.6.5-.9.7-3.1 2.3-6.9 3.8-10.7 4.4-2.3.4-4.6.3-6.9-.1-2.2-.4-4.3-1.1-6.5-1.1 0-.5-.1-1.3-.2-2zm.3 3.1v-.6c1.6 0 3.2.4 4.7.8 2.2.5 4.4.8 6.7.7 2.2-.1 4.4-.6 6.4-1.3 1.5-.5 2.9-1.1 4.3-1.9-1 .9-2 1.7-3 2.5-1.8 1.3-3.8 2.6-5.9 3.5-2 .9-4.2 1.5-6.4 1.4-1.3 0-2.5-.3-3.7-.9-.6-.3-1.1-.7-1.7-1-.4-.2-.8-.5-1.2-.8-.1-.8-.2-1.6-.2-2.4zm.2 2.7l1.5.9c.7.5 1.5.9 2.3 1.2 1.9.7 4.1.6 6.1.1s4-1.4 5.8-2.4c2.1-1.2 4.1-2.6 5.9-4.2.5-.4.9-.8 1.4-1.2.2-.1.4-.3.6-.4.9-.6 1.8-1.3 2.6-2.1.1-.1.3-.2.4-.4.1-.1.2-.1.3-.2-.2.6-.5 1.2-.8 1.9-.1.2-.1.3-.2.5s-.2.5-.3.7l-.6 1.2c-.4.7-.7 1.4-1.2 2.1-.2.4-.5.8-.8 1.2-.1.2-.2.3-.3.5-.8.1-1.6.3-2.4.5-1 .2-1.9.6-2.7 1.1-1.7 1-3.3 2.1-5.1 2.9-.9.4-1.9.7-2.9.8-1.1.1-2.4-.1-3.4-.5s-2-.9-3.1-1.1c-.8-.2-1.7-.3-2.6-.4 0-.2-.1-.4-.1-.6-.1-.5-.2-1.1-.3-1.6 0-.2 0-.4-.1-.5zm13.2 9.4c-1.4.5-2.8.7-4.2 1-1.4.3-2.9.7-4.3.9-.8.1-1.5 0-2.3 0h-1.2c-.1 0-.3-.1-.4-.1H44c.1-.6.1-1.2.1-1.8 1.6.3 3.2.3 4.8.2 1.7-.1 3.3-.5 4.9-.9 1.6-.4 3.2-.9 4.7-1.6.8-.4 1.6-.8 2.3-1.2-.3.4-.7.6-.9 1-.3.3-.7.6-.9.9-.1.1-.2.2-.3.4h-.1c-.6.6-1.3.9-2.1 1.2zm1.6-.5l-.9.6c-.6.4-1.3.8-1.9 1.2-1.3.9-2.7 1.5-4.2 2.1-1.4.5-2.8.9-4.3 1.1-.7.1-1.5.2-2.2.3-.3 0-.7.1-1 0 .2-.9.3-1.8.5-2.7v-.2h.3c.4.1.7.1 1.1.1.8 0 1.6.1 2.4 0 1.6-.1 3.1-.5 4.6-.9 1.6-.3 3.2-.6 4.7-1.2.2 0 .6-.2.9-.4zm.3-1.9c-1.5.7-3 1.2-4.6 1.6-1.6.4-3.2.8-4.8.9-1.6.1-3.3.2-4.8-.2v-.8c0-.3 0-.3.3-.3.5 0 1.1 0 1.6.1h3c.4 0 .9 0 1.3-.1.6-.1 1.1-.2 1.7-.3.3-.1.7-.1 1-.2.5-.2 1-.4 1.6-.6.4-.2.9-.3 1.3-.5.3-.2.7-.3 1-.5.5-.3 1.1-.5 1.6-.7.8-.3 1.4-.8 2.2-1.2.8-.4 1.5-.9 2.2-1.5.2-.2.4-.3.6-.5 0 0 .1 0 .2-.1 0 .2 0 .4-.2.5-.2.2-.3.6-.6.8v.1c-.1.1-.1.2-.2.3-.2.3-.5.5-.7.8-.1.1-.2.3-.3.4-.1.1-.2.2-.3.4-1 .6-2 1.2-3.1 1.6zM63 74c-.8.6-1.5 1.2-2.3 1.6-.2.1-.5.3-.7.4-.4.2-.8.5-1.2.7-.8.4-1.6.8-2.5 1.1-.8.3-1.6.7-2.4 1l-.9.3c-.8.1-1.6.3-2.4.4-.6.1-1.2.1-1.8.1h-2.2c-.7 0-1.4-.1-2.2-.2h-.2v-.1c0-.6 0-1.2-.1-1.9 0-.5-.1-.9-.1-1.4-.1-.4-.1-.8-.2-1.1 1 .1 1.9.2 2.9.5 1.1.3 2.1.9 3.2 1.2 1.8.5 3.8.5 5.5-.3 1.8-.7 3.4-1.8 5.1-2.9.9-.6 1.9-1.1 3-1.4.8-.2 1.6-.3 2.4-.5-.1.1-.1.2-.2.2-.4.4-.8.8-1.2 1.1-.5.5-1 .8-1.5 1.2zM43.1 87.9c.1-.4.3-.8.4-1.3h.3c.3 0 .7 0 1-.1.7-.1 1.5-.2 2.2-.3 1.5-.2 2.9-.6 4.4-1.2.8-.3 1.5-.6 2.3-.9.7-.3 1.4-.8 2-1.2.4-.3.8-.5 1.3-.8-.1.1-.2.2-.2.3l-1 1c-.1.1-.2.2-.3.4-.1 0-.1.1-.2.1-.3.3-.6.5-1 .7-.6.4-1.3.7-2 1-1.4.5-2.7 1.1-4.1 1.6-1.4.5-2.8.6-4.2.9-.4.1-.7.1-1.1.2.1-.1.2-.2.2-.4zm-.9 2.1c.1-.2.2-.3.3-.4.1-.3.3-.7.4-1h.1c.7-.2 1.5-.3 2.2-.5.7-.1 1.4-.2 2.1-.4.7-.2 1.3-.4 2-.6 1.4-.5 2.8-1 4.1-1.7.3-.1.6-.3.8-.4-.6.6-1.2 1.1-1.8 1.6-.3.2-.5.5-.7.7l-.2.2-.6.3c-.6.3-1.2.6-1.8.8-1.2.4-2.5.7-3.8 1.1-1.1.3-2.3.7-3.4 1.3 0-.4.3-.6.3-1zm3.2 1.6c-.2.1-.4.3-.6.4-.4.3-.8.5-1.2.8-1.3.4-2.6.8-3.8 1.3-.1 0-.2.1-.3.1.1-.1.2-.2.2-.4h.1c.1 0 .1-.1.2-.2 0-.1.1-.2.2-.3.8-.3 1.5-.6 2.3-.9 1-.2 2-.5 2.9-.8zm1.4-.8c-.3.1-.5.3-.8.4-1.4.4-2.8.8-4.1 1.3-.5.2-1.1.4-1.6.6l.2-.2.3-.6c.1-.2.3-.4.4-.7.1-.2.2-.3.3-.5 1.4-.8 3-1.3 4.5-1.7 1.2-.3 2.5-.6 3.6-1.1.2-.1.5-.2.7-.3l-.2.2c-.5.3-.9.7-1.4 1-.3.2-.5.4-.8.6l-.9.6c0 .2-.1.3-.2.4zm3-.4l-2.4 1.2c.1-.1.2-.2.3-.2l1.2-.9c.6-.4 1.2-.9 1.8-1.3.1-.1.3-.2.4-.3.2-.2.4-.4.7-.5.3-.2.5-.4.8-.6.4-.3.7-.6 1-.9.3-.3.6-.5.9-.8-.5.7-.9 1.3-1.4 2-.5.7-1 1.3-1.6 1.9-.6-.1-1.2.1-1.7.4zm5.5-2.2c-.7.3-1.5.6-2.2.8-.2.1-.4.2-.7.2.4-.4.7-.8 1.1-1.3.9-1.3 1.8-2.5 2.7-3.8.2-.2.4-.4.6-.5.2-.2.4-.4.6-.5l1.2-1.2 1.7-1.7c.1-.1.1-.2.2-.2l-.1.1c-.7 1.2-1.1 2.5-1.8 3.7-.7 1.2-1.4 2.4-2.3 3.4-.2.3-.6.7-1 1zm7-3.9c-.2.2-.3.4-.4.6 0 0 0 .1-.1.1-.6.4-1.3.7-1.9 1.1-1.2.7-2.5 1.3-3.9 1.9.2-.1.3-.3.4-.4.9-1 1.6-2.2 2.3-3.4.4-.6.7-1.2 1-1.9.3-.7.6-1.4 1-2.1.3-.5.6-1 1-1.5.3-.3.6-.7.9-1 .9-1.2 1.8-2.4 2.6-3.6.2-.4.5-.7.7-1.1l.6-.9v.2l-.3 1.8c-.2 1-.5 1.9-.7 2.9-.2.9-.5 1.8-.8 2.7-.3.6-.5 1.3-.9 1.9-.3.5-.6 1-.8 1.6-.1.3-.4.7-.7 1.1zm3.1-1.6c-.6.5-1.3.9-2 1.3h-.1l-.1-.1c0-.1.1-.2.1-.3.2-.4.4-.7.6-1.1.5-.8.9-1.6 1.2-2.5.1-.3.3-.7.4-1 .2-.6.4-1.3.5-1.9.2-.7.4-1.4.6-2.2 0-.2.1-.4.1-.7v.6c.1 1 .4 2 .4 3s-.1 2.1-.6 3c-.2.8-.6 1.4-1.1 1.9zm2.9-2.3c-.2.1-.3.2-.5.3-.4.3-.8.5-1.1.8.1-.1.2-.3.3-.4.5-.9.6-1.9.6-2.9s-.2-1.9-.4-2.9 0-1.9.1-2.9c0 .2.1.5.2.7.3.7.6 1.3 1 2s.9 1.4 1.3 2.1c.2.3.5.9.6 1.4-.8.6-1.4 1.2-2.1 1.8zm3-4.2c-.1.7-.2 1.4-.6 2l-.1.1c-.1-.3-.3-.7-.4-.9-.4-.8-.9-1.5-1.3-2.3-.4-.7-.8-1.4-1.1-2.1-.1-.4-.2-.9-.3-1.3 0 0 .1-.1.1-.2.1-.2.1-.4.2-.6.1-.3.1-.7.3-1 .3-.6.7-1.2 1.1-1.8.2-.4.5-.8.7-1.3v.6c.1 1.5.5 3 .8 4.4.3 1.5.7 3 .6 4.4zm2.7-.8c-.5.5-1 1-1.6 1.5-.1 0-.1.1-.2.1-.2.2-.5.3-.7.5.1-.4.2-.7.2-1.1.1-1.4-.2-2.8-.5-4.2-.4-1.6-.8-3.1-.9-4.8v-.7c.1.3.3.6.4.9.5.9 1.1 1.7 1.8 2.4s1.6 1.4 2 2.3c.2.4.3.8.3 1.2 0 .2.1.5.1.8-.2.4-.5.7-.9 1.1zm3.5-4.3c0 .1 0 .2-.1.3-.2.2-.3.4-.5.6l-.3.3c-.3.3-.5.7-.8 1-.1.2-.2.4-.4.5 0 0 0 .1-.1.1 0-.4-.2-.8-.2-1.1-.3-.9-1-1.6-1.7-2.2-.7-.7-1.6-1.5-2.1-2.4-.3-.5-.5-1-.7-1.5-.1-.2-.2-.4-.2-.7v-.3c.2-.4.4-.9.6-1.3.2-.4.3-.7.4-1.1.1.4.2.8.4 1.2.5.9.9 1.6 1.7 2.2.8.7 1.6 1.3 2.4 1.9.4.3 1 .6 1.4.9l.4.4c-.1.4-.2.8-.2 1.2zm.2-1.5c-.1 0-.2-.1-.3-.2-.1-.1-.3-.2-.5-.3-.9-.6-1.8-1.2-2.7-1.9-.4-.4-.9-.7-1.3-1.1-.3-.4-.6-.8-.8-1.3-.2-.4-.4-.8-.5-1.2-.1-.3-.1-.5-.2-.8.1-.2.1-.4.2-.7.1-.5.3-.9.4-1.4.1-.3.2-.7.3-1 .2.5.4 1 .6 1.4.3.8.8 1.6 1.3 2.3.6.7 1.2 1.4 1.9 2 .4.3.7.6 1 1 .1.1.2.3.3.4v.4c.4.7.4 1.6.3 2.4zm3.1-3.8c-.1.1-.1.3-.2.4-.3.6-.6 1.3-.9 1.9-.2.4-.5.8-.7 1.2-.2.3-.4.5-.7.8V70c.3-1.1.2-2.2.1-3.3-.1-.8-.2-1.5-.4-2.3-.1-.7-.3-1.4-.5-2-.3-.7-.5-1.5-.8-2.2-.2-.6-.4-1.3-.6-1.9-.4-1.1-.7-2.2-1-3.3-.2-.7-.3-1.4-.4-2.1-.1-.6-.2-1.2-.2-1.8.3.7.6 1.5 1 2.1.6.8 1.1 1.6 1.8 2.4.7.8 1.4 1.6 2.1 2.5.6.8 1 1.7 1.2 2.7.2 1 .3 2.2.3 3.2-.1.6 0 1.2-.1 1.8zm1.2-3.4c-.1.4-.3.9-.4 1.3-.1.5-.3.9-.5 1.3v-1c0-1-.1-2-.3-3-.2-1-.5-1.9-1.1-2.7-.6-.8-1.3-1.6-1.9-2.3-.4-.4-.8-.9-1.1-1.3-.3-.4-.6-.8-.8-1.3-.6-.9-1-1.8-1.3-2.8v-.1c.1-.6.1-1.3.1-2v-.1-.7c.3.5.6 1.1 1 1.5 1 1.5 2.1 2.9 3 4.4.9 1.5 1.7 3 2.5 4.5.6 1.2 1.4 2.7.7 4.1 0 .1.1.2.1.2zm.5-2.5c0 .2-.1.5-.1.7-.1-.7-.5-1.4-.8-2.1-.8-1.5-1.7-3-2.5-4.5-.9-1.5-1.8-2.9-2.9-4.3-.5-.7-1.2-1.6-1.6-2.5V47c0-.6.1-1.1.1-1.7v-.6c.1.3.2.6.4.9.8 1.5 1.7 2.9 2.7 4.3 1.1 1.5 2.4 2.8 3.4 4.3.5.7.9 1.4 1.2 2.2.1.2.2.4.3.7 0 .8-.1 1.8-.2 2.8zm.4-5.7c0 .6.1 1.1 0 1.7-.3-.6-.6-1.1-.9-1.6-1-1.5-2.2-2.8-3.3-4.2-1.1-1.4-2.1-2.9-2.9-4.5-.4-.8-.7-1.6-1-2.4v-.1-.6c.1.2.3.5.4.7.9 1.3 2 2.3 3.1 3.3 1.1.9 2.4 1.8 3.3 2.9.5.6.8 1.2 1.1 1.9.1 1 .1 1.9.2 2.9zm-.7-6.8c0 .3.1.6.1.8 0 .4.1.7.1 1.1-.9-1.1-2.1-1.9-3.2-2.9-1.2-1-2.3-2-3.2-3.3-.4-.6-.8-1.3-1.2-2-.1-.2-.2-.4-.3-.7v-.1c0 .1.1.1.1.2.3.4.7.8 1.1 1.2l2.4 2.4c.8.7 1.6 1.5 2.5 2.1.4.3.9.5 1.2.8.2.3.3.3.4.4zm-.1-.3c-.3-.2-.6-.4-1-.6-.9-.7-1.8-1.5-2.7-2.2L76 41.9c-.4-.4-.8-.9-1.2-1.3-.1-.2-.3-.4-.4-.6v-.6c0-.4-.1-.8-.1-1.2-.1-.6-.1-1.2-.2-1.7v-.8h.1l.3.6c.4.7.7 1.4 1.1 2 .6 1.1 1.4 2 2.3 2.9.5.6 1.1 1.1 1.6 1.7.5.5 1 1 1.4 1.6.2.3.5.7.7 1 .2.4.4.8.5 1.3v.3zM80 39.6c.3.8.7 1.5 1 2.3.3.6.5 1.2.7 1.8 0 .1 0 .2.1.3-.1 0-.2-.1-.3-.2-.3-.4-.6-.8-1-1.1-.6-.6-1.2-1.3-1.8-1.9-.8-.8-1.6-1.7-2.2-2.6-.5-.8-1-1.6-1.4-2.4-.2-.3-.3-.7-.5-1l.3.3c.5.6 1 1.2 1.5 1.7 1 .9 2.1 1.6 3.3 2.2.1.3.2.5.3.6zm-1.1-2.5c.2.6.5 1.2.7 1.8-1.1-.6-2.2-1.3-3.1-2.2-.5-.5-1-1.1-1.5-1.7-.2-.2-.5-.5-.6-.7-.1-.2-.2-.5-.2-.7-.2-.8-.4-1.5-.4-2.3v-.1c.3.6.6 1.1 1 1.6 1 1.2 2.2 2.3 3.6 3 .2.4.3.8.5 1.3zm-1.6-4.5c.3.8.5 1.6.8 2.4 0 .1 0 .1.1.2l-1.2-.9c-.6-.5-1.2-1.1-1.7-1.7-.5-.7-1-1.4-1.2-2.2 0-.1-.1-.3-.1-.4.4.4.8.7 1.2 1 .6.4 1.3.5 1.9.7 0 .2.1.6.2.9zm.2-14c-.2.1-.5.2-.8.4-.3.2-.6.5-.9.7-.4.3-.7.6-1.1 1-.2.2-.4.4-.7.6-.2.2-.7.8-.7.8-.1.1-1 1.3-1.2 1.5-.4.6-.7 1.3-1.1 1.8-.1.1-.1.2-.3.4 0-.5-.1-1-.1-1.5v-.8c0-.3-.1-.6-.2-.8.5 0 .8-.4 1.2-.7.7-.6 1.3-1.3 2.2-1.8.8-.5 1.7-1 2.6-1.3.3-.2.7-.3 1.1-.3zm1.6-1c-.4.2-.8.5-1.2.7h-.5c-.4.1-.7.1-1.1.3-.8.3-1.5.7-2.3 1-.8.4-1.4.9-2 1.5-.3.3-.6.5-.9.8-.2.1-.5.4-.7.5 0-.1-.1-.2-.1-.2-.1-.6-.3-1.1-.5-1.7h.3c.5 0 1-.1 1.5-.3 1-.4 2-.9 2.9-1.4.9-.5 1.8-1.1 2.8-1.5.5-.2 1-.3 1.5-.4.5-.1.9 0 1.3.3-.3.1-.7.3-1 .4zm-1-.8c-1 .2-2 .6-2.9 1.1-1 .6-1.9 1.1-2.9 1.6-.5.3-1.1.5-1.6.7-.3.1-.6.1-.9.1h-.2c-.1-.3-.2-.5-.4-.8 0 0 .1 0 .1-.1l1.5-.9c1-.6 1.9-1.1 3-1.5 1.1-.4 2.2-.7 3.3-.8.6-.1 1.2-.1 1.8-.1.2 0 .5.1.7.1.3.2.5.4.7.6v.1c-.6-.3-1.3-.3-2.2-.1zm2.6-1.4v-.1h.1s0 .1-.1.1c.1 0 .1 0 0 0zm-.2-4.6c.1.6.1 1.1.1 1.7v1.1c0 .5 0 1-.2 1.5-.3-.1-.4-.2-.4-.5v-.3-1.8-1c0-.8 0-1.6.2-2.4l.3-1.5c.2-.6.4-1 .9-1.4l.2-.2.6-.6c.4-.2.7-.4 1.1-.6 0 0 0 .1-.1.1-.3.4-.6.7-.9 1.1-.2.4-.4.8-.7 1.1-.3.5-.5.9-.8 1.4-.2.9-.3 1.5-.3 2.3zm1.3.3c.5-.9 1.1-1.7 1.8-2.5.4-.5.8-1 1.3-1.4.5-.5 1.1-.8 1.7-1.2.1-.1.3-.2.5-.3.2-.1.3-.2.5-.3v.2c-.2.2-.3.3-.5.4-.3.2-.6.5-1 .7-.1 0-.1.1-.1.2-.2.2-.3.4-.5.6-.4.3-.8.7-1.2 1-.4.3-.8.7-1.1 1.1-.3.4-.7.9-1 1.4-.1.2-.2.4-.5.5.1-.3.1-.4.1-.4zm-.5 2.6c-.1-.2-.1-.4 0-.6.1-.2.1-.3.2-.5.3-.4.5-.9.8-1.3.4-.5.7-1.1 1.1-1.6.4-.5.8-.9 1.3-1.3.3-.1.6-.4.9-.6.4-.3.7-.7 1.1-1 .2-.2.5-.4.7-.6h.1c-.1.1-.2.3-.3.4-.6.7-1.1 1.4-1.8 2-.9.8-1.7 1.6-2.5 2.5-.5.5-.9 1.1-1.1 1.8-.2.3-.3.5-.5.8zm7.1 2.8c.3-.1.5-.1.8-.2.4-.1.8-.2 1.2-.2.7-.1 1.5.1 2.2.1h.4c.7.2 1.4.3 2.1.6.1 0 .2.1.3.1v.1c-2.3-.5-4.7-.6-7-.5zm7.2 4.9c-1.7-.6-3.3-1.3-4.9-2 1.8.2 3.6.7 4.9 2zm-4.5-1.3c1.1.5 2.2.9 3.4 1.4l1.5.6c.1.1.2.1.4.2v.1h-.3c-.8-.1-1.6-.1-2.4-.2-.7-.1-1.4-.1-2-.3-.6-.1-1.1-.3-1.6-.6l-1.2-.6c-.5-.2-1-.6-1.5-.9-.4-.2-.7-.5-1.1-.7l-.3-.4h.2c.5.1 1 .2 1.4.3.9.1 1.7.4 2.5.7.4.1.7.2 1 .4zM88 17.6c-.6 0-1.1.1-1.7.1-.4 0-.8-.1-1.2-.1 0 0-.1-.1-.2-.1.6-.1 1.1-.2 1.6-.3.9-.1 1.8-.2 2.7-.2h.6c.5-.1 1.1-.1 1.6-.1 1 0 3.4.5 3.6.5 1.2.2 2.3.7 3.4 1.3.1.1 0 .2-.1.2-1-.6-2.1-1.1-3.3-1.3-.2 0-.4 0-.6-.1h-1.3c-.3 0-.5-.1-.8-.1h-.8c-1.2 0-2.3.1-3.5.2z" fill-rule="evenodd" clip-rule="evenodd"/></symbol><symbol id="message" viewBox="0 0 24 24"><path d="M20.5 3.5C18.2 1.3 15.2 0 12 0S5.8 1.3 3.5 3.5c-4.4 4.4-4.7 11.4-.8 16.1-.5 1.1-1.2 1.8-1.9 2.2-.4.2-.7.7-.6 1.2.1.5.4.9.9.9.3 0 .6.1.9.1 1.5 0 3-.5 4.3-1.4C8 23.5 10 24 12 24c3.2 0 6.2-1.2 8.5-3.5S24 15.2 24 12s-1.3-6.2-3.5-8.5zm-1 16c-2 2-4.7 3.1-7.5 3.1-1.9 0-3.8-.5-5.4-1.5-.1-.1-.2-.1-.3-.1-.1 0-.3.1-.4.1-1.5 1.2-3.1 1.4-3.8 1.4.8-.6 1.5-1.5 2.1-2.8 0-.2 0-.5-.2-.7C.3 14.8.5 8.4 4.5 4.5c2-2 4.7-3.1 7.5-3.1s5.5 1.1 7.5 3.1c4.2 4.1 4.2 10.9 0 15z"/><path d="M17 8H7c-.4 0-.7.3-.7.7s.3.7.7.7h10c.4 0 .7-.3.7-.7S17.4 8 17 8zM17 11.3H7c-.4 0-.7.3-.7.7s.3.7.7.7h10c.4 0 .7-.3.7-.7s-.3-.7-.7-.7zM17 14.6H7c-.4 0-.7.3-.7.7s.3.7.7.7h10c.4 0 .7-.3.7-.7s-.3-.7-.7-.7z"/></symbol><symbol id="mouse" viewBox="0 0 24 24"><path d="M11.8 3c-.5 0-.9.4-.9.9s.4.9.9.9.9-.4.9-.9-.4-.9-.9-.9z"/><path d="M11.8 0C8.9 0 6.5 2.6 6.5 5.9v6.8c0 3.3 2.4 5.9 5.3 5.9s5.3-2.6 5.3-5.9V5.9c.1-3.3-2.3-5.9-5.3-5.9zm4.3 12.7c0 2.7-1.9 4.9-4.3 4.9s-4.3-2.2-4.3-4.9V5.9C7.5 3.2 9.4 1 11.8 1s4.3 2.2 4.3 4.9v6.8zM14.5 21.6l-2.3 2.3c-.2.2-.5.2-.7 0l-2.3-2.3c-.2-.2-.2-.5 0-.7.2-.2.5-.2.7 0l2 2 2-2c.2-.2.5-.2.7 0 0 .1.2.4-.1.7z"/></symbol><symbol id="pack" viewBox="0 0 24 24"><path d="M18.6 6.2h-.5V3.6c0-.3-.2-.5-.5-.5h-4.5c-.3 0-.5.2-.5.5v.6h-1.3v-.6c0-.3-.2-.5-.5-.5H9.1V.5c0-.3-.2-.5-.4-.5H6.4c-.3 0-.5.2-.5.5v5.7h-.4c-.3 0-.5.2-.5.5v16.9c0 .2.2.4.5.4h13.1c.3 0 .5-.2.5-.5V6.7c0-.3-.2-.5-.5-.5zM15.9 4h1.3v2.2h-1.3V4zm-2.3 0h1.3v2.2h-1.3V4zm-2.2 1.1h1.3v1.1h-1.3V5.1zM9.1 4h1.3v2.2H9.1V4zm7.1 3.1c-.2.5-.7.9-1.3.9H9.2c-.6 0-1.1-.4-1.3-.9h8.3zM6.9.9h1.3v5.3H6.9V.9zm11.2 22.2H5.9v-7.3l6.1-3.5 6.1 3.5v7.3zm0-8.4l-5.9-3.4-5.9 3.4V7.1h1C7.1 8.2 8.1 9 9.2 9h5.6c1.1 0 2.1-.8 2.3-1.9h1v7.6z"/><path d="M10.4 21.2c-.3 0-.5.2-.5.5s.2.5.5.5.5-.2.5-.5-.2-.5-.5-.5zM13.7 21.2h-1.9c-.3 0-.5.2-.5.5s.2.5.5.5h1.9c.3 0 .5-.2.5-.5s-.3-.5-.5-.5z"/></symbol><symbol id="pin" viewBox="0 0 25 34"><path d="M12.5 0C5.6 0 0 5.6 0 12.5c0 1.8.4 3.5 1.1 5.1 3.1 6.8 9.1 14.1 10.9 16.1.1.2.3.2.5.2s.4-.1.5-.2c1.8-2.1 7.8-9.3 10.9-16.1.7-1.6 1.1-3.3 1.1-5.1C25 5.6 19.4 0 12.5 0zm0 19C8.9 19 6 16.1 6 12.5S8.9 6 12.5 6 19 8.9 19 12.5 16.1 19 12.5 19z"/></symbol><symbol id="plant" viewBox="0 0 24 24"><path d="M11.9 23.6c.8.2 1.6.4 2.4.4 1.6 0 3.2-.4 4.6-1.3v-.1s0-.1.1-.2v-.1c-.1-1.7-.5-3.3-1.3-4.7 2-2 2.9-4.2 2.9-6.7-.2-5.7-5.7-10.6-6-10.8-.2-.2-.5-.2-.7 0 0 0 0 .1-.1.1-2.8 5.2-3.6 9.6-2.3 13-2.7-.6-5.5-.7-8.2-.2-.3 0-.4.3-.4.6v.1c2.5 5.5 5.5 8.9 9 9.9zm2.6-22.4c1.3 1.3 5.1 5.3 5.2 9.7.1 2.1-.8 4.1-2.5 5.9l-.1-.1-.3-2.4 1.7-2.3c.2-.2.1-.5-.1-.7-.2-.2-.5-.1-.7.1l-1.1 1.5-.3-1.9L18 8.7c.2-.2.1-.5-.1-.7-.2-.2-.5-.1-.7.1l-1.1 1.5-.7-4.6c0-.3-.3-.4-.5-.4-.3 0-.4.3-.4.5l.7 4.5-1.4-1.1c-.2-.2-.5-.1-.7.1s-.1.6.1.8l2.2 1.7.3 1.9-1.4-1.1c-.2-.2-.5-.1-.7.1-.2.2-.1.5.1.7l2.1 1.7.2 1.1c-.1-.1-.2-.2-.4-.3-.9-.7-1.8-1.2-2.9-1.5-1.5-3.2-.9-7.4 1.8-12.5zm.6 14.7c1.7 1.3 2.6 3.2 3 5.6l-2.2-1.3-.7-2.7c-.1-.3-.4-.4-.6-.3-.2.1-.4.3-.3.5l.5 1.8-1.7-1-.7-2.7c-.1-.3-.3-.4-.6-.4-.3.1-.4.3-.4.6v.1l.5 1.8-4-2.3c-.2-.1-.5 0-.6.2-.1.2 0 .5.2.6l3.9 2.3-1.8.3c-.3 0-.5.3-.4.5 0 .3.3.5.5.4h.1l2.7-.6 1.7 1-1.7.4c-.3 0-.5.3-.4.5 0 .3.3.5.5.4h.1l2.7-.6 2.3 1.3c-1.7.8-3.6 1-5.4.4-3.1-1-5.9-3.9-8-8.9 1.7-.2 7.3-.7 10.8 2.1z"/></symbol><symbol id="shedule" viewBox="0 0 24 24"><path d="M19 3.1h-2.2v-1c0-.3-.3-.5-.7-.5h-1.7C14 .6 13 0 11.9 0S9.7.7 9.4 1.7H7.7c-.3 0-.6.1-.6.5v1H4.9c-1.3 0-2.3 1-2.4 2.3v16.4c0 1.3 1.1 2.2 2.4 2.2H19c1.3 0 2.4-.9 2.4-2.2V5.5c-.1-1.3-1.2-2.3-2.4-2.4zM8.2 2.9h1.6c.3 0 .5-.2.5-.5.2-.7.8-1.3 1.6-1.3.7 0 1.4.6 1.5 1.3.1.3.3.5.6.5h1.6v2.3H8.2V2.9zm12 18.9c0 .6-.6 1-1.3 1h-14c-.6 0-1.3-.4-1.3-1V5.5c.1-.7.6-1.2 1.3-1.2h2.2v1.5c0 .3.3.6.6.5h8.4c.3 0 .6-.2.7-.5V4.3H19c.7 0 1.2.5 1.3 1.2l-.1 16.3z"/><path d="M9.7 12.8c-.2-.2-.6-.2-.8 0l-1.8 1.7-.8-.8c-.2-.2-.6-.2-.8 0-.2.2-.2.6 0 .8l1.2 1.2c.1.1.2.2.4.2s.3-.1.4-.2l2.2-2.1c.2-.2.3-.6 0-.8.1 0 0 0 0 0zM17.9 14h-6.6c-.3 0-.6.3-.6.6s.3.6.6.6h6.6c.3 0 .6-.3.6-.6s-.3-.6-.6-.6zM9.7 8.2c-.2-.2-.5-.2-.8 0L7.1 9.9l-.8-.8c-.2-.2-.6-.2-.8 0-.2.2-.2.6 0 .8l1.2 1.2c.1.1.2.2.4.2s.3-.1.4-.2L9.7 9c.2-.2.3-.5 0-.8.1 0 0 0 0 0zM17.9 9.4h-6.6c-.3 0-.6.3-.6.6s.3.6.6.6h6.6c.3 0 .6-.3.6-.6s-.3-.6-.6-.6zM9.7 17.3c-.2-.2-.6-.2-.8 0L7.1 19l-.8-.8c-.2-.2-.6-.2-.8 0-.2.2-.2.6 0 .8l1.2 1.2c.1.1.2.2.4.2s.3-.1.4-.2l2.2-2.1c.2-.2.3-.5 0-.8.1.1 0 .1 0 0zM17.9 18.6h-6.6c-.3 0-.6.3-.6.6s.3.6.6.6h6.6c.3 0 .6-.3.6-.6s-.3-.6-.6-.6z"/></symbol><symbol id="sheer" viewBox="0 0 60 22"><path d="M38.9 11.5c0 .3.1.5.1.7.4 1.9 1.9 3.1 3.8 3.3 1.7.1 3-.5 4-1.9.5-.7 1.3-.8 1.9-.2.4.3.4.7.1 1.1-.2.2-.3.4-.5.6-.6.9-1.5 1.5-2.5 1.8-1.7.6-3.4.7-5 .1-2.2-.8-3.6-2.5-4-4.8-.2-1.4-.1-2.9.6-4.2 1-1.9 2.5-3 4.5-3.3 1.4-.2 2.8-.1 4 .5 1.8.9 2.9 2.3 3.4 4.3.1.5.2 1.1.2 1.6 0 .3-.1.5-.5.5h-9.8c0-.1-.2-.1-.3-.1zm8.5-2C47.1 7.7 45 6.2 43 6.3c-2 .1-4 1.7-4.1 3.2h8.5zM24.9 11.5c0 .2 0 .3.1.4.4 2.1 2.1 3.5 4.1 3.5 1.6 0 2.8-.6 3.7-1.9.5-.7 1.4-.8 2-.2.3.3.3.7.1 1-.1.2-.3.3-.4.5-.7 1-1.6 1.7-2.8 2-1.7.5-3.4.6-5 0-2.3-.9-3.6-2.7-3.9-5.2-.1-1.2 0-2.4.5-3.5.9-2.1 2.5-3.4 4.8-3.7 1.2-.2 2.4-.1 3.6.4 2 .9 3.2 2.4 3.7 4.6.1.5.1 1 .2 1.5 0 .4-.1.5-.5.5H25.5c-.2.1-.4.1-.6.1zm8.6-2.1c-.3-1.7-2.3-3.2-4.3-3.1-1.9.1-4 1.6-4.1 3.1h8.4zM55.9 12.4l.3.3c1.1.9 2.2 1.8 3.3 2.8.1.1.2.1.2.2.4.4.4 1 .1 1.4-.3.4-.9.5-1.3.1-.8-.6-1.5-1.3-2.2-1.9-1.1-.9-2.1-1.8-3.2-2.7-.1-.1-.2-.2-.4-.3v8.6c0 .6-.5 1-1 .9-.5 0-.9-.4-.9-1v-.4V5.3v-.5c0-.4 0-.4.4-.4H56c1.9-.1 4 1.4 4.2 3.6.2 2-1.2 3.8-3.2 4.2-.5.1-.8.2-1.1.2zm-3.4-1.5H55.6c.3 0 .5 0 .8-.1.9-.3 1.5-.8 1.8-1.7.4-1.6-.8-3-2.4-3H52.6c-.1 1.6-.1 3.2-.1 4.8zM19.6 11.5h-5.5V16.1c0 .2 0 .3-.1.5-.1.4-.6.7-1 .7-.5 0-.8-.4-.9-.9v-.3-15c0-.2 0-.4.1-.6.2-.4.6-.7 1.1-.6.4.1.8.4.8.9v8.6c.3.1 5.1.1 5.4 0V9 5.6v-.3c0-.5.4-.9.9-.9s.9.3 1 .9V16.4c-.1.5-.5.9-1 .9s-.9-.4-1-.9v-.3V12c.2-.1.2-.3.2-.5zM5.5 17.4c-1.3 0-2.5-.3-3.7-1-.5-.3-.9-.6-1.3-1.1-.2-.2-.3-.5-.5-.7-.2-.4-.1-.8.2-1.1.4-.4.9-.5 1.4-.2.4.2.6.5.8.7l.6.6c.6.6 1.3.9 2.2 1 .8.1 1.6.1 2.3-.2.3-.1.6-.3.9-.5.6-.5.7-1.3 0-1.8-.3-.2-.7-.4-1-.6-.9-.4-1.8-.6-2.7-.9-.8-.2-1.5-.4-2.2-.7-.3-.1-.6-.2-.8-.4C1 10.1.6 9.5.5 8.7.1 7.3.7 6 2.2 5.3c2.2-1.1 4.4-1.1 6.5.1.4.3.8.6 1.1.9.3.2.4.5.5.9.2.6-.1.9-.6 1-.4.1-.8 0-1.2-.4.1-.1 0-.2-.1-.2-.5-.8-1.2-1.2-2.1-1.4-.9-.1-1.8-.1-2.6.2-.3.1-.6.3-.9.5-.6.5-.6 1.2 0 1.7.4.4.8.6 1.3.8 1.1.3 2.1.5 3.2.8.7.2 1.4.4 2 .7.8.4 1.4 1 1.6 2 .2 1.1 0 2.1-.9 2.9-1 .9-2.1 1.4-3.4 1.6-.4-.1-.7 0-1.1 0z"/></symbol><symbol id="tel" viewBox="0 0 24 24"><path d="M20.6 24h-.3c-3.5-.4-7-1.6-9.9-3.5-2.8-1.7-5.1-4.1-6.9-6.9-1.9-3-3.1-6.4-3.5-10-.1-.9.2-1.7.7-2.4C1.3.5 2.1.1 3 0H6.6c1.6 0 3 1.2 3.2 2.8.1 1 .4 1.9.7 2.8.4 1.2.2 2.6-.7 3.5l-.8.8c1.3 2 3 3.7 5 5l.8-.8c.9-.9 2.3-1.2 3.5-.7.9.3 1.9.6 2.8.7 1.7.2 2.9 1.7 2.8 3.3v3.3c0 .9-.3 1.7-1 2.3-.5.7-1.3 1-2.3 1 .1 0 .1 0 0 0zM6.6 2.2H3.3c-.4 0-.7.2-.8.4-.2.2-.3.5-.3.8.3 3.2 1.4 6.3 3.2 9 1.6 2.5 3.7 4.7 6.2 6.2 2.7 1.7 5.8 2.9 9 3.2.4 0 .6-.1.9-.3.2-.2.3-.5.3-.8v-3.3c0-.6-.4-1-.9-1.1-1.1-.1-2.2-.4-3.3-.8-.4-.2-.9-.1-1.2.2L15 17.1c-.3.3-.9.4-1.3.2-2.9-1.7-5.3-4.1-7-7-.3-.4-.2-1 .2-1.3l1.4-1.4c.3-.3.4-.8.2-1.2-.4-1-.7-2.1-.8-3.3-.1-.5-.6-.9-1.1-.9z"/></symbol><symbol id="trophy" viewBox="0 0 24 24"><path d="M17.5 14.9c0-.1.1-.2.2-.3.1-.1.5-.2.8-.3.5-.2 1.1-.3 1.4-.8.3-.5.2-1.1 0-1.6-.1-.3-.2-.6-.1-.8 0-.2.3-.4.5-.6.3-.5.7-.9.7-1.5s-.4-1-.8-1.4c-.2-.2-.4-.5-.5-.6-.1-.2 0-.5.1-.8.1-.5.3-1.1 0-1.6s-.9-.7-1.4-.8c-.3-.1-.6-.2-.8-.3-.1-.1-.2-.5-.3-.8-.2-.5-.3-1.1-.8-1.4-.5-.3-1.1-.2-1.6 0-.3.1-.6.1-.8.1-.2 0-.4-.3-.6-.5C13 .4 12.6 0 12 0s-1 .4-1.4.8c-.3.2-.5.4-.7.5-.2.1-.5 0-.8-.1-.5-.1-1.1-.3-1.6 0s-.7.9-.8 1.4c-.1.3-.2.6-.4.7-.1.2-.4.3-.7.4-.5.1-1.1.3-1.4.8-.3.5-.1 1.1 0 1.6.1.3.1.6.1.8 0 .2-.3.4-.5.6C3.4 8 3 8.4 3 9s.4 1 .8 1.4c.2.2.4.5.5.6.1.2 0 .5-.1.8-.1.5-.3 1.1 0 1.6s.9.7 1.4.8c.3.1.6.2.8.3.1.1.1.2.2.3L3 23.3c-.1.2 0 .4.1.6.2.1.3.1.4.1.1 0 .2 0 .2-.1L7.4 22l2.8 1.8c.1.1.3.1.4.1.1 0 .3-.2.3-.3l1.1-2.9 1 2.9c.1.1.2.3.3.3.1.1.3 0 .4-.1l2.8-1.8 3.7 1.9c.1 0 .1.1.2.1s.2 0 .3-.1c.2-.1.2-.4.1-.6l-3.3-8.4zm-6 4.4l-1.3 3.4-2.5-1.6c-.2-.1-.3-.1-.5 0l-2.8 1.4L7 16.3c.1.2.3.4.5.5.5.3 1.1.2 1.6 0 .3-.1.6-.2.8-.1.2 0 .4.3.6.5l.4.4v.1l.6 1.6c.1 0 0 0 0 0zM12 17c-.2 0-.5-.3-.7-.5-.3-.3-.6-.6-1.1-.7-.1 0-.3-.1-.4-.1-.3 0-.6.1-.9.1-.4.1-.7.2-.9.1-.2-.1-.3-.5-.4-.8-.1-.4-.3-.9-.6-1.2-.3-.3-.8-.4-1.2-.6-.3-.1-.7-.2-.8-.4-.1-.2 0-.6.1-.9.1-.4.2-.9.1-1.3s-.4-.7-.7-1.1C4.3 9.5 4 9.2 4 9s.3-.5.5-.7c.3-.3.6-.6.7-1.1.1-.4 0-.9-.1-1.3 0-.3-.1-.7 0-.9.1-.2.5-.3.8-.4.4-.1.9-.3 1.2-.6.3-.3.4-.8.6-1.2 0-.3.1-.6.3-.7.2-.1.6 0 .9.1.4.1.9.2 1.3.1s.7-.4 1.1-.7c.2-.3.5-.6.7-.6.2 0 .5.3.7.5.3.3.6.6 1.1.7.4.1.9 0 1.3-.1.3 0 .7-.1.9 0 .2.1.3.5.4.8.1.4.3.9.6 1.2.3.3.8.4 1.2.6.3.1.7.2.8.4.1.2 0 .6-.1.9-.1.4-.2.9-.1 1.3s.4.7.7 1.1c.2.1.5.4.5.6s-.3.5-.5.7c-.3.3-.6.6-.7 1.1-.1.4 0 .9.1 1.3.1.3.2.7.1.9-.1.2-.5.3-.8.4-.4.1-.9.3-1.2.6-.3.3-.4.8-.6 1.2-.1.3-.2.7-.4.8-.2.1-.6 0-.9-.1-.4-.1-.9-.2-1.3-.1s-.7.4-1.1.7c-.2.2-.5.5-.7.5zm4.7 4.1c-.2-.1-.4-.1-.5 0l-2.5 1.6-1.5-4.7c.5-.1.9-.4 1.2-.8.2-.2.5-.4.6-.5.2-.1.5 0 .8.1.5.1 1.1.3 1.6 0 .2-.1.4-.3.5-.5l2.5 6.2-2.7-1.4z"/><path d="M18 9c0-3.3-2.7-6-6-6S6 5.7 6 9s2.7 6 6 6 6-2.7 6-6zm-6 5c-2.8 0-5-2.2-5-5s2.2-5 5-5 5 2.2 5 5-2.2 5-5 5z"/></symbol><symbol id="user" viewBox="0 0 24 24"><path d="M12 16.5c3.7 0 6.8-3.7 6.8-8.3S15.7 0 12 0c-1.8 0-3.6.9-4.8 2.5C5.9 4 5.3 6.1 5.3 8.3c0 4.5 3 8.2 6.7 8.2zm0-15c2.9 0 5.3 3 5.3 6.7S14.9 15 12 15s-5.3-3-5.3-6.8c0-3.7 2.4-6.7 5.3-6.7zM17.3 15c-.4 0-.8.3-.8.8s.3.8.8.8c2.9 0 5.3 2.4 5.3 5.3 0 .4-.3.8-.8.8H2.3c-.4 0-.8-.3-.8-.8 0-2.9 2.4-5.3 5.3-5.3.4 0 .8-.3.8-.8s-.4-.8-.8-.8C3 15 0 18 0 21.8 0 23 1 24 2.3 24h19.5c1.2 0 2.3-1 2.3-2.3C24 18 21 15 17.3 15z"/></symbol></svg>